<?xml version="1.0" encoding="utf-8" standalone="no"?>
<!DOCTYPE svg PUBLIC "-//W3C//DTD SVG 1.1//EN"
  "http://www.w3.org/Graphics/SVG/1.1/DTD/svg11.dtd">
<svg xmlns:xlink="http://www.w3.org/1999/xlink" width="634.211559pt" height="496.21968pt" viewBox="0 0 634.211559 496.21968" xmlns="http://www.w3.org/2000/svg" version="1.1">
 <metadata>
  <rdf:RDF xmlns:dc="http://purl.org/dc/elements/1.1/" xmlns:cc="http://creativecommons.org/ns#" xmlns:rdf="http://www.w3.org/1999/02/22-rdf-syntax-ns#">
   <cc:Work>
    <dc:type rdf:resource="http://purl.org/dc/dcmitype/StillImage"/>
    <dc:date>2026-04-29T17:57:27.719192</dc:date>
    <dc:format>image/svg+xml</dc:format>
    <dc:creator>
     <cc:Agent>
      <dc:title>Matplotlib v3.10.9, https://matplotlib.org/</dc:title>
     </cc:Agent>
    </dc:creator>
   </cc:Work>
  </rdf:RDF>
 </metadata>
 <defs>
  <style type="text/css">*{stroke-linejoin: round; stroke-linecap: butt}</style>
 </defs>
 <g id="figure_1">
  <g id="patch_1">
   <path d="M 0 496.21968 
L 634.211559 496.21968 
L 634.211559 0 
L 0 0 
z
" style="fill: #ffffff"/>
  </g>
  <g id="axes_1">
   <g id="patch_2">
    <path d="M 507.423609 250.62768 
C 507.423609 219.322329 501.257138 188.321384 489.277099 159.399011 
C 477.29706 130.476639 459.736435 104.195306 437.600209 82.05908 
C 415.463983 59.922855 389.182651 42.36223 360.260278 30.38219 
C 331.337905 18.402151 300.33696 12.23568 269.031609 12.23568 
C 237.726259 12.23568 206.725313 18.402151 177.802941 30.38219 
C 148.880568 42.36223 122.599235 59.922855 100.46301 82.05908 
C 78.326784 104.195306 60.766159 130.476639 48.78612 159.399011 
C 36.806081 188.321384 30.639609 219.322329 30.639609 250.62768 
C 30.639609 281.933031 36.806081 312.933976 48.78612 341.856349 
C 60.766159 370.778721 78.326784 397.060054 100.46301 419.19628 
C 122.599235 441.332505 148.880568 458.89313 177.802941 470.87317 
C 206.725313 482.853209 237.726259 489.01968 269.031609 489.01968 
C 300.33696 489.01968 331.337905 482.853209 360.260278 470.87317 
C 389.182651 458.89313 415.463983 441.332505 437.600209 419.19628 
C 459.736435 397.060054 477.29706 370.778721 489.277099 341.856349 
C 501.257138 312.933976 507.423609 281.933031 507.423609 250.62768 
M 269.031609 250.62768 
C 269.031609 250.62768 269.031609 250.62768 269.031609 250.62768 
C 269.031609 250.62768 269.031609 250.62768 269.031609 250.62768 
C 269.031609 250.62768 269.031609 250.62768 269.031609 250.62768 
C 269.031609 250.62768 269.031609 250.62768 269.031609 250.62768 
C 269.031609 250.62768 269.031609 250.62768 269.031609 250.62768 
C 269.031609 250.62768 269.031609 250.62768 269.031609 250.62768 
C 269.031609 250.62768 269.031609 250.62768 269.031609 250.62768 
C 269.031609 250.62768 269.031609 250.62768 269.031609 250.62768 
C 269.031609 250.62768 269.031609 250.62768 269.031609 250.62768 
C 269.031609 250.62768 269.031609 250.62768 269.031609 250.62768 
C 269.031609 250.62768 269.031609 250.62768 269.031609 250.62768 
C 269.031609 250.62768 269.031609 250.62768 269.031609 250.62768 
C 269.031609 250.62768 269.031609 250.62768 269.031609 250.62768 
C 269.031609 250.62768 269.031609 250.62768 269.031609 250.62768 
C 269.031609 250.62768 269.031609 250.62768 269.031609 250.62768 
C 269.031609 250.62768 269.031609 250.62768 269.031609 250.62768 
z
" style="fill: #ffffff"/>
   </g>
   <g id="matplotlib.axis_1">
    <g id="xtick_1">
     <g id="line2d_1">
      <path d="M 269.031609 250.62768 
L 507.423609 250.62768 
" clip-path="url(#pa4185e2959)" style="fill: none; stroke: #cccccc; stroke-width: 0.8; stroke-linecap: round"/>
     </g>
     <g id="text_1">
      <!-- MAP -->
      <g style="fill: #262626" transform="translate(508.249313 253.111118) scale(0.09 -0.09)">
       <defs>
        <path id="DejaVuSans-4d" d="M 628 4666 
L 1569 4666 
L 2759 1491 
L 3956 4666 
L 4897 4666 
L 4897 0 
L 4281 0 
L 4281 4097 
L 3078 897 
L 2444 897 
L 1241 4097 
L 1241 0 
L 628 0 
L 628 4666 
z
" transform="scale(0.015625)"/>
        <path id="DejaVuSans-41" d="M 2188 4044 
L 1331 1722 
L 3047 1722 
L 2188 4044 
z
M 1831 4666 
L 2547 4666 
L 4325 0 
L 3669 0 
L 3244 1197 
L 1141 1197 
L 716 0 
L 50 0 
L 1831 4666 
z
" transform="scale(0.015625)"/>
        <path id="DejaVuSans-50" d="M 1259 4147 
L 1259 2394 
L 2053 2394 
Q 2494 2394 2734 2622 
Q 2975 2850 2975 3272 
Q 2975 3691 2734 3919 
Q 2494 4147 2053 4147 
L 1259 4147 
z
M 628 4666 
L 2053 4666 
Q 2838 4666 3239 4311 
Q 3641 3956 3641 3272 
Q 3641 2581 3239 2228 
Q 2838 1875 2053 1875 
L 1259 1875 
L 1259 0 
L 628 0 
L 628 4666 
z
" transform="scale(0.015625)"/>
       </defs>
       <use xlink:href="#DejaVuSans-4d"/>
       <use xlink:href="#DejaVuSans-41" transform="translate(86.279297 0)"/>
       <use xlink:href="#DejaVuSans-50" transform="translate(154.6875 0)"/>
      </g>
     </g>
    </g>
    <g id="xtick_2">
     <g id="line2d_2">
      <path d="M 269.031609 250.62768 
L 388.227609 44.174152 
" clip-path="url(#pa4185e2959)" style="fill: none; stroke: #cccccc; stroke-width: 0.8; stroke-linecap: round"/>
     </g>
     <g id="text_2">
      <!-- MRR -->
      <g style="fill: #262626" transform="translate(383.341359 37.564323) scale(0.09 -0.09)">
       <defs>
        <path id="DejaVuSans-52" d="M 2841 2188 
Q 3044 2119 3236 1894 
Q 3428 1669 3622 1275 
L 4263 0 
L 3584 0 
L 2988 1197 
Q 2756 1666 2539 1819 
Q 2322 1972 1947 1972 
L 1259 1972 
L 1259 0 
L 628 0 
L 628 4666 
L 2053 4666 
Q 2853 4666 3247 4331 
Q 3641 3997 3641 3322 
Q 3641 2881 3436 2590 
Q 3231 2300 2841 2188 
z
M 1259 4147 
L 1259 2491 
L 2053 2491 
Q 2509 2491 2742 2702 
Q 2975 2913 2975 3322 
Q 2975 3731 2742 3939 
Q 2509 4147 2053 4147 
L 1259 4147 
z
" transform="scale(0.015625)"/>
       </defs>
       <use xlink:href="#DejaVuSans-4d"/>
       <use xlink:href="#DejaVuSans-52" transform="translate(86.279297 0)"/>
       <use xlink:href="#DejaVuSans-52" transform="translate(155.761719 0)"/>
      </g>
     </g>
    </g>
    <g id="xtick_3">
     <g id="line2d_3">
      <path d="M 269.031609 250.62768 
L 149.835609 44.174152 
" clip-path="url(#pa4185e2959)" style="fill: none; stroke: #cccccc; stroke-width: 0.8; stroke-linecap: round"/>
     </g>
     <g id="text_3">
      <!-- nDCG@10 -->
      <g style="fill: #262626" transform="translate(121.413422 37.564323) scale(0.09 -0.09)">
       <defs>
        <path id="DejaVuSans-6e" d="M 3513 2113 
L 3513 0 
L 2938 0 
L 2938 2094 
Q 2938 2591 2744 2837 
Q 2550 3084 2163 3084 
Q 1697 3084 1428 2787 
Q 1159 2491 1159 1978 
L 1159 0 
L 581 0 
L 581 3500 
L 1159 3500 
L 1159 2956 
Q 1366 3272 1645 3428 
Q 1925 3584 2291 3584 
Q 2894 3584 3203 3211 
Q 3513 2838 3513 2113 
z
" transform="scale(0.015625)"/>
        <path id="DejaVuSans-44" d="M 1259 4147 
L 1259 519 
L 2022 519 
Q 2988 519 3436 956 
Q 3884 1394 3884 2338 
Q 3884 3275 3436 3711 
Q 2988 4147 2022 4147 
L 1259 4147 
z
M 628 4666 
L 1925 4666 
Q 3281 4666 3915 4102 
Q 4550 3538 4550 2338 
Q 4550 1131 3912 565 
Q 3275 0 1925 0 
L 628 0 
L 628 4666 
z
" transform="scale(0.015625)"/>
        <path id="DejaVuSans-43" d="M 4122 4306 
L 4122 3641 
Q 3803 3938 3442 4084 
Q 3081 4231 2675 4231 
Q 1875 4231 1450 3742 
Q 1025 3253 1025 2328 
Q 1025 1406 1450 917 
Q 1875 428 2675 428 
Q 3081 428 3442 575 
Q 3803 722 4122 1019 
L 4122 359 
Q 3791 134 3420 21 
Q 3050 -91 2638 -91 
Q 1578 -91 968 557 
Q 359 1206 359 2328 
Q 359 3453 968 4101 
Q 1578 4750 2638 4750 
Q 3056 4750 3426 4639 
Q 3797 4528 4122 4306 
z
" transform="scale(0.015625)"/>
        <path id="DejaVuSans-47" d="M 3809 666 
L 3809 1919 
L 2778 1919 
L 2778 2438 
L 4434 2438 
L 4434 434 
Q 4069 175 3628 42 
Q 3188 -91 2688 -91 
Q 1594 -91 976 548 
Q 359 1188 359 2328 
Q 359 3472 976 4111 
Q 1594 4750 2688 4750 
Q 3144 4750 3555 4637 
Q 3966 4525 4313 4306 
L 4313 3634 
Q 3963 3931 3569 4081 
Q 3175 4231 2741 4231 
Q 1884 4231 1454 3753 
Q 1025 3275 1025 2328 
Q 1025 1384 1454 906 
Q 1884 428 2741 428 
Q 3075 428 3337 486 
Q 3600 544 3809 666 
z
" transform="scale(0.015625)"/>
        <path id="DejaVuSans-40" d="M 2381 1678 
Q 2381 1231 2603 976 
Q 2825 722 3213 722 
Q 3597 722 3817 978 
Q 4038 1234 4038 1678 
Q 4038 2116 3813 2373 
Q 3588 2631 3206 2631 
Q 2828 2631 2604 2375 
Q 2381 2119 2381 1678 
z
M 4084 744 
Q 3897 503 3655 389 
Q 3413 275 3091 275 
Q 2553 275 2217 664 
Q 1881 1053 1881 1678 
Q 1881 2303 2218 2693 
Q 2556 3084 3091 3084 
Q 3413 3084 3656 2967 
Q 3900 2850 4084 2613 
L 4084 3022 
L 4531 3022 
L 4531 722 
Q 4988 791 5245 1139 
Q 5503 1488 5503 2041 
Q 5503 2375 5404 2669 
Q 5306 2963 5106 3213 
Q 4781 3622 4314 3839 
Q 3847 4056 3297 4056 
Q 2913 4056 2559 3954 
Q 2206 3853 1906 3653 
Q 1416 3334 1139 2817 
Q 863 2300 863 1697 
Q 863 1200 1042 765 
Q 1222 331 1563 0 
Q 1891 -325 2322 -495 
Q 2753 -666 3244 -666 
Q 3647 -666 4036 -530 
Q 4425 -394 4750 -141 
L 5031 -488 
Q 4641 -791 4180 -952 
Q 3719 -1113 3244 -1113 
Q 2666 -1113 2153 -908 
Q 1641 -703 1241 -313 
Q 841 78 631 592 
Q 422 1106 422 1697 
Q 422 2266 634 2781 
Q 847 3297 1241 3688 
Q 1644 4084 2172 4295 
Q 2700 4506 3291 4506 
Q 3953 4506 4520 4234 
Q 5088 3963 5472 3463 
Q 5706 3156 5829 2797 
Q 5953 2438 5953 2053 
Q 5953 1231 5456 756 
Q 4959 281 4084 263 
L 4084 744 
z
" transform="scale(0.015625)"/>
        <path id="DejaVuSans-31" d="M 794 531 
L 1825 531 
L 1825 4091 
L 703 3866 
L 703 4441 
L 1819 4666 
L 2450 4666 
L 2450 531 
L 3481 531 
L 3481 0 
L 794 0 
L 794 531 
z
" transform="scale(0.015625)"/>
        <path id="DejaVuSans-30" d="M 2034 4250 
Q 1547 4250 1301 3770 
Q 1056 3291 1056 2328 
Q 1056 1369 1301 889 
Q 1547 409 2034 409 
Q 2525 409 2770 889 
Q 3016 1369 3016 2328 
Q 3016 3291 2770 3770 
Q 2525 4250 2034 4250 
z
M 2034 4750 
Q 2819 4750 3233 4129 
Q 3647 3509 3647 2328 
Q 3647 1150 3233 529 
Q 2819 -91 2034 -91 
Q 1250 -91 836 529 
Q 422 1150 422 2328 
Q 422 3509 836 4129 
Q 1250 4750 2034 4750 
z
" transform="scale(0.015625)"/>
       </defs>
       <use xlink:href="#DejaVuSans-6e"/>
       <use xlink:href="#DejaVuSans-44" transform="translate(63.378906 0)"/>
       <use xlink:href="#DejaVuSans-43" transform="translate(140.380859 0)"/>
       <use xlink:href="#DejaVuSans-47" transform="translate(210.205078 0)"/>
       <use xlink:href="#DejaVuSans-40" transform="translate(287.695312 0)"/>
       <use xlink:href="#DejaVuSans-31" transform="translate(387.695312 0)"/>
       <use xlink:href="#DejaVuSans-30" transform="translate(451.318359 0)"/>
      </g>
     </g>
    </g>
    <g id="xtick_4">
     <g id="line2d_4">
      <path d="M 269.031609 250.62768 
L 30.639609 250.62768 
" clip-path="url(#pa4185e2959)" style="fill: none; stroke: #cccccc; stroke-width: 0.8; stroke-linecap: round"/>
     </g>
     <g id="text_4">
      <!-- P@10 -->
      <g style="fill: #262626" transform="translate(7.2 253.111118) scale(0.09 -0.09)">
       <use xlink:href="#DejaVuSans-50"/>
       <use xlink:href="#DejaVuSans-40" transform="translate(60.302734 0)"/>
       <use xlink:href="#DejaVuSans-31" transform="translate(160.302734 0)"/>
       <use xlink:href="#DejaVuSans-30" transform="translate(223.925781 0)"/>
      </g>
     </g>
    </g>
    <g id="xtick_5">
     <g id="line2d_5">
      <path d="M 269.031609 250.62768 
L 149.835609 457.081208 
" clip-path="url(#pa4185e2959)" style="fill: none; stroke: #cccccc; stroke-width: 0.8; stroke-linecap: round"/>
     </g>
     <g id="text_5">
      <!-- Recall@10 -->
      <g style="fill: #262626" transform="translate(120.933891 468.657912) scale(0.09 -0.09)">
       <defs>
        <path id="DejaVuSans-65" d="M 3597 1894 
L 3597 1613 
L 953 1613 
Q 991 1019 1311 708 
Q 1631 397 2203 397 
Q 2534 397 2845 478 
Q 3156 559 3463 722 
L 3463 178 
Q 3153 47 2828 -22 
Q 2503 -91 2169 -91 
Q 1331 -91 842 396 
Q 353 884 353 1716 
Q 353 2575 817 3079 
Q 1281 3584 2069 3584 
Q 2775 3584 3186 3129 
Q 3597 2675 3597 1894 
z
M 3022 2063 
Q 3016 2534 2758 2815 
Q 2500 3097 2075 3097 
Q 1594 3097 1305 2825 
Q 1016 2553 972 2059 
L 3022 2063 
z
" transform="scale(0.015625)"/>
        <path id="DejaVuSans-63" d="M 3122 3366 
L 3122 2828 
Q 2878 2963 2633 3030 
Q 2388 3097 2138 3097 
Q 1578 3097 1268 2742 
Q 959 2388 959 1747 
Q 959 1106 1268 751 
Q 1578 397 2138 397 
Q 2388 397 2633 464 
Q 2878 531 3122 666 
L 3122 134 
Q 2881 22 2623 -34 
Q 2366 -91 2075 -91 
Q 1284 -91 818 406 
Q 353 903 353 1747 
Q 353 2603 823 3093 
Q 1294 3584 2113 3584 
Q 2378 3584 2631 3529 
Q 2884 3475 3122 3366 
z
" transform="scale(0.015625)"/>
        <path id="DejaVuSans-61" d="M 2194 1759 
Q 1497 1759 1228 1600 
Q 959 1441 959 1056 
Q 959 750 1161 570 
Q 1363 391 1709 391 
Q 2188 391 2477 730 
Q 2766 1069 2766 1631 
L 2766 1759 
L 2194 1759 
z
M 3341 1997 
L 3341 0 
L 2766 0 
L 2766 531 
Q 2569 213 2275 61 
Q 1981 -91 1556 -91 
Q 1019 -91 701 211 
Q 384 513 384 1019 
Q 384 1609 779 1909 
Q 1175 2209 1959 2209 
L 2766 2209 
L 2766 2266 
Q 2766 2663 2505 2880 
Q 2244 3097 1772 3097 
Q 1472 3097 1187 3025 
Q 903 2953 641 2809 
L 641 3341 
Q 956 3463 1253 3523 
Q 1550 3584 1831 3584 
Q 2591 3584 2966 3190 
Q 3341 2797 3341 1997 
z
" transform="scale(0.015625)"/>
        <path id="DejaVuSans-6c" d="M 603 4863 
L 1178 4863 
L 1178 0 
L 603 0 
L 603 4863 
z
" transform="scale(0.015625)"/>
       </defs>
       <use xlink:href="#DejaVuSans-52"/>
       <use xlink:href="#DejaVuSans-65" transform="translate(64.982422 0)"/>
       <use xlink:href="#DejaVuSans-63" transform="translate(126.505859 0)"/>
       <use xlink:href="#DejaVuSans-61" transform="translate(181.486328 0)"/>
       <use xlink:href="#DejaVuSans-6c" transform="translate(242.765625 0)"/>
       <use xlink:href="#DejaVuSans-6c" transform="translate(270.548828 0)"/>
       <use xlink:href="#DejaVuSans-40" transform="translate(298.332031 0)"/>
       <use xlink:href="#DejaVuSans-31" transform="translate(398.332031 0)"/>
       <use xlink:href="#DejaVuSans-30" transform="translate(461.955078 0)"/>
      </g>
     </g>
    </g>
    <g id="xtick_6">
     <g id="line2d_6">
      <path d="M 269.031609 250.62768 
L 388.227609 457.081208 
" clip-path="url(#pa4185e2959)" style="fill: none; stroke: #cccccc; stroke-width: 0.8; stroke-linecap: round"/>
     </g>
     <g id="text_6">
      <!-- QPS -->
      <g style="fill: #262626" transform="translate(384.365109 468.657912) scale(0.09 -0.09)">
       <defs>
        <path id="DejaVuSans-51" d="M 2522 4238 
Q 1834 4238 1429 3725 
Q 1025 3213 1025 2328 
Q 1025 1447 1429 934 
Q 1834 422 2522 422 
Q 3209 422 3611 934 
Q 4013 1447 4013 2328 
Q 4013 3213 3611 3725 
Q 3209 4238 2522 4238 
z
M 3406 84 
L 4238 -825 
L 3475 -825 
L 2784 -78 
Q 2681 -84 2626 -87 
Q 2572 -91 2522 -91 
Q 1538 -91 948 567 
Q 359 1225 359 2328 
Q 359 3434 948 4092 
Q 1538 4750 2522 4750 
Q 3503 4750 4090 4092 
Q 4678 3434 4678 2328 
Q 4678 1516 4351 937 
Q 4025 359 3406 84 
z
" transform="scale(0.015625)"/>
        <path id="DejaVuSans-53" d="M 3425 4513 
L 3425 3897 
Q 3066 4069 2747 4153 
Q 2428 4238 2131 4238 
Q 1616 4238 1336 4038 
Q 1056 3838 1056 3469 
Q 1056 3159 1242 3001 
Q 1428 2844 1947 2747 
L 2328 2669 
Q 3034 2534 3370 2195 
Q 3706 1856 3706 1288 
Q 3706 609 3251 259 
Q 2797 -91 1919 -91 
Q 1588 -91 1214 -16 
Q 841 59 441 206 
L 441 856 
Q 825 641 1194 531 
Q 1563 422 1919 422 
Q 2459 422 2753 634 
Q 3047 847 3047 1241 
Q 3047 1584 2836 1778 
Q 2625 1972 2144 2069 
L 1759 2144 
Q 1053 2284 737 2584 
Q 422 2884 422 3419 
Q 422 4038 858 4394 
Q 1294 4750 2059 4750 
Q 2388 4750 2728 4690 
Q 3069 4631 3425 4513 
z
" transform="scale(0.015625)"/>
       </defs>
       <use xlink:href="#DejaVuSans-51"/>
       <use xlink:href="#DejaVuSans-50" transform="translate(78.710938 0)"/>
       <use xlink:href="#DejaVuSans-53" transform="translate(139.013672 0)"/>
      </g>
     </g>
    </g>
   </g>
   <g id="matplotlib.axis_2">
    <g id="ytick_1">
     <g id="line2d_7">
      <path d="M 314.70779 250.62768 
C 314.70779 244.629539 313.526287 238.689722 311.230898 233.148162 
C 308.935509 227.606603 305.570873 222.571069 301.329546 218.329743 
C 297.08822 214.088417 292.052687 210.723781 286.511127 208.428392 
C 280.969567 206.133002 275.02975 204.951499 269.031609 204.951499 
C 263.033468 204.951499 257.093652 206.133002 251.552092 208.428392 
C 246.010532 210.723781 240.974999 214.088417 236.733672 218.329743 
C 232.492346 222.571069 229.12771 227.606603 226.832321 233.148162 
C 224.536932 238.689722 223.355429 244.629539 223.355429 250.62768 
C 223.355429 256.625821 224.536932 262.565638 226.832321 268.107198 
C 229.12771 273.648757 232.492346 278.684291 236.733672 282.925617 
C 240.974999 287.166943 246.010532 290.531579 251.552092 292.826968 
C 257.093652 295.122358 263.033468 296.303861 269.031609 296.303861 
C 275.02975 296.303861 280.969567 295.122358 286.511127 292.826968 
C 292.052687 290.531579 297.08822 287.166943 301.329546 282.925617 
C 305.570873 278.684291 308.935509 273.648757 311.230898 268.107198 
C 313.526287 262.565638 314.70779 256.625821 314.70779 250.62768 
" clip-path="url(#pa4185e2959)" style="fill: none; stroke: #cccccc; stroke-width: 0.8; stroke-linecap: round"/>
     </g>
    </g>
    <g id="ytick_2">
     <g id="line2d_8">
      <path d="M 360.383971 250.62768 
C 360.383971 238.631398 358.020965 226.751764 353.430186 215.668645 
C 348.839408 204.585525 342.110136 194.514458 333.627483 186.031806 
C 325.144831 177.549153 315.073764 170.819882 303.990645 166.229103 
C 292.907525 161.638325 281.027892 159.275319 269.031609 159.275319 
C 257.035327 159.275319 245.155694 161.638325 234.072574 166.229103 
C 222.989455 170.819882 212.918388 177.549153 204.435735 186.031806 
C 195.953083 194.514458 189.223811 204.585525 184.633033 215.668645 
C 180.042254 226.751764 177.679248 238.631398 177.679248 250.62768 
C 177.679248 262.623962 180.042254 274.503596 184.633033 285.586715 
C 189.223811 296.669835 195.953083 306.740902 204.435735 315.223554 
C 212.918388 323.706207 222.989455 330.435478 234.072574 335.026257 
C 245.155694 339.617035 257.035327 341.980041 269.031609 341.980041 
C 281.027892 341.980041 292.907525 339.617035 303.990645 335.026257 
C 315.073764 330.435478 325.144831 323.706207 333.627483 315.223554 
C 342.110136 306.740902 348.839408 296.669835 353.430186 285.586715 
C 358.020965 274.503596 360.383971 262.623962 360.383971 250.62768 
" clip-path="url(#pa4185e2959)" style="fill: none; stroke: #cccccc; stroke-width: 0.8; stroke-linecap: round"/>
     </g>
    </g>
    <g id="ytick_3">
     <g id="line2d_9">
      <path d="M 406.060151 250.62768 
C 406.060151 232.633257 402.515642 214.813807 395.629475 198.189127 
C 388.743307 181.564448 378.649399 166.457848 365.92542 153.733869 
C 353.201442 141.00989 338.094841 130.915983 321.470162 124.029815 
C 304.845483 117.143647 287.026033 113.599138 269.031609 113.599138 
C 251.037186 113.599138 233.217736 117.143647 216.593057 124.029815 
C 199.968377 130.915983 184.861777 141.00989 172.137798 153.733869 
C 159.41382 166.457848 149.319912 181.564448 142.433744 198.189127 
C 135.547577 214.813807 132.003068 232.633257 132.003068 250.62768 
C 132.003068 268.622103 135.547577 286.441553 142.433744 303.066233 
C 149.319912 319.690912 159.41382 334.797512 172.137798 347.521491 
C 184.861777 360.24547 199.968377 370.339377 216.593057 377.225545 
C 233.217736 384.111713 251.037186 387.656222 269.031609 387.656222 
C 287.026033 387.656222 304.845483 384.111713 321.470162 377.225545 
C 338.094841 370.339377 353.201442 360.24547 365.92542 347.521491 
C 378.649399 334.797512 388.743307 319.690912 395.629475 303.066233 
C 402.515642 286.441553 406.060151 268.622103 406.060151 250.62768 
" clip-path="url(#pa4185e2959)" style="fill: none; stroke: #cccccc; stroke-width: 0.8; stroke-linecap: round"/>
     </g>
    </g>
    <g id="ytick_4">
     <g id="line2d_10">
      <path d="M 451.736332 250.62768 
C 451.736332 226.635116 447.01032 202.875849 437.828763 180.70961 
C 428.647206 158.543371 415.188662 138.401237 398.223358 121.435932 
C 381.258053 104.470627 361.115919 91.012083 338.94968 81.830526 
C 316.783441 72.64897 293.024174 67.922958 269.031609 67.922958 
C 245.039045 67.922958 221.279778 72.64897 199.113539 81.830526 
C 176.9473 91.012083 156.805166 104.470627 139.839861 121.435932 
C 122.874556 138.401237 109.416013 158.543371 100.234456 180.70961 
C 91.052899 202.875849 86.326887 226.635116 86.326887 250.62768 
C 86.326887 274.620244 91.052899 298.379511 100.234456 320.54575 
C 109.416013 342.711989 122.874556 362.854123 139.839861 379.819428 
C 156.805166 396.784733 176.9473 410.243277 199.113539 419.424834 
C 221.279778 428.60639 245.039045 433.332402 269.031609 433.332402 
C 293.024174 433.332402 316.783441 428.60639 338.94968 419.424834 
C 361.115919 410.243277 381.258053 396.784733 398.223358 379.819428 
C 415.188662 362.854123 428.647206 342.711989 437.828763 320.54575 
C 447.01032 298.379511 451.736332 274.620244 451.736332 250.62768 
" clip-path="url(#pa4185e2959)" style="fill: none; stroke: #cccccc; stroke-width: 0.8; stroke-linecap: round"/>
     </g>
    </g>
    <g id="ytick_5">
     <g id="line2d_11">
      <path d="M 497.412512 250.62768 
C 497.412512 220.636975 491.504997 190.937891 480.028051 163.230092 
C 468.551105 135.522293 451.727926 110.344626 430.521295 89.137995 
C 409.314663 67.931364 384.136996 51.108184 356.429197 39.631238 
C 328.721398 28.154292 299.022315 22.246777 269.031609 22.246777 
C 239.040904 22.246777 209.34182 28.154292 181.634022 39.631238 
C 153.926223 51.108184 128.748555 67.931364 107.541924 89.137995 
C 86.335293 110.344626 69.512114 135.522293 58.035167 163.230092 
C 46.558221 190.937891 40.650706 220.636975 40.650706 250.62768 
C 40.650706 280.618385 46.558221 310.317469 58.035167 338.025268 
C 69.512114 365.733067 86.335293 390.910734 107.541924 412.117365 
C 128.748555 433.323996 153.926223 450.147176 181.634022 461.624122 
C 209.34182 473.101068 239.040904 479.008583 269.031609 479.008583 
C 299.022315 479.008583 328.721398 473.101068 356.429197 461.624122 
C 384.136996 450.147176 409.314663 433.323996 430.521295 412.117365 
C 451.727926 390.910734 468.551105 365.733067 480.028051 338.025268 
C 491.504997 310.317469 497.412512 280.618385 497.412512 250.62768 
" clip-path="url(#pa4185e2959)" style="fill: none; stroke: #cccccc; stroke-width: 0.8; stroke-linecap: round"/>
     </g>
    </g>
   </g>
   <g id="patch_3">
    <path d="M 491.787367 250.62768 
L 372.225292 71.890979 
L 154.841158 52.844016 
L 45.408642 250.62768 
L 159.926563 439.603164 
L 301.048447 306.082469 
z
" clip-path="url(#pa4185e2959)" style="fill: #1f77b4; opacity: 0.08"/>
   </g>
   <g id="patch_4">
    <path d="M 481.380848 250.62768 
L 375.2604 66.634017 
L 157.895121 58.133635 
L 47.02634 250.62768 
L 169.635063 422.787549 
L 301.16295 306.280795 
z
" clip-path="url(#pa4185e2959)" style="fill: #ff7f0e; opacity: 0.08"/>
   </g>
   <g id="patch_5">
    <path d="M 481.099591 250.62768 
L 373.061046 70.44341 
L 157.895121 58.133635 
L 45.408642 250.62768 
L 164.087348 432.396472 
L 349.421617 389.867257 
z
" clip-path="url(#pa4185e2959)" style="fill: #2ca02c; opacity: 0.08"/>
   </g>
   <g id="patch_6">
    <path d="M 474.349416 250.62768 
L 371.741434 72.729046 
L 158.31157 58.854947 
L 51.784275 250.62768 
L 167.939928 425.723609 
L 356.106838 401.4464 
z
" clip-path="url(#pa4185e2959)" style="fill: #d62728; opacity: 0.08"/>
   </g>
   <g id="patch_7">
    <path d="M 497.412512 250.62768 
L 369.190183 77.147941 
L 158.39486 58.999209 
L 40.650706 250.62768 
L 154.841158 448.411344 
L 283.111091 275.014057 
z
" clip-path="url(#pa4185e2959)" style="fill: #9467bd; opacity: 0.08"/>
   </g>
   <g id="line2d_12">
    <path d="M 491.787367 250.62768 
L 372.225292 71.890979 
L 154.841158 52.844016 
L 45.408642 250.62768 
L 159.926563 439.603164 
L 301.048447 306.082469 
L 491.787367 250.62768 
" clip-path="url(#pa4185e2959)" style="fill: none; stroke: #1f77b4; stroke-width: 1.8; stroke-linecap: round"/>
   </g>
   <g id="line2d_13">
    <path d="M 481.380848 250.62768 
L 375.2604 66.634017 
L 157.895121 58.133635 
L 47.02634 250.62768 
L 169.635063 422.787549 
L 301.16295 306.280795 
L 481.380848 250.62768 
" clip-path="url(#pa4185e2959)" style="fill: none; stroke: #ff7f0e; stroke-width: 1.8; stroke-linecap: round"/>
   </g>
   <g id="line2d_14">
    <path d="M 481.099591 250.62768 
L 373.061046 70.44341 
L 157.895121 58.133635 
L 45.408642 250.62768 
L 164.087348 432.396472 
L 349.421617 389.867257 
L 481.099591 250.62768 
" clip-path="url(#pa4185e2959)" style="fill: none; stroke: #2ca02c; stroke-width: 1.8; stroke-linecap: round"/>
   </g>
   <g id="line2d_15">
    <path d="M 474.349416 250.62768 
L 371.741434 72.729046 
L 158.31157 58.854947 
L 51.784275 250.62768 
L 167.939928 425.723609 
L 356.106838 401.4464 
L 474.349416 250.62768 
" clip-path="url(#pa4185e2959)" style="fill: none; stroke: #d62728; stroke-width: 1.8; stroke-linecap: round"/>
   </g>
   <g id="line2d_16">
    <path d="M 497.412512 250.62768 
L 369.190183 77.147941 
L 158.39486 58.999209 
L 40.650706 250.62768 
L 154.841158 448.411344 
L 283.111091 275.014057 
L 497.412512 250.62768 
" clip-path="url(#pa4185e2959)" style="fill: none; stroke: #9467bd; stroke-width: 1.8; stroke-linecap: round"/>
   </g>
   <g id="patch_8">
    <path d="M 507.423609 250.62768 
C 507.423609 219.322329 501.257138 188.321384 489.277099 159.399011 
C 477.29706 130.476639 459.736435 104.195306 437.600209 82.05908 
C 415.463983 59.922855 389.182651 42.36223 360.260278 30.38219 
C 331.337905 18.402151 300.33696 12.23568 269.031609 12.23568 
C 237.726259 12.23568 206.725313 18.402151 177.802941 30.38219 
C 148.880568 42.36223 122.599235 59.922855 100.46301 82.05908 
C 78.326784 104.195306 60.766159 130.476639 48.78612 159.399011 
C 36.806081 188.321384 30.639609 219.322329 30.639609 250.62768 
C 30.639609 281.933031 36.806081 312.933976 48.78612 341.856349 
C 60.766159 370.778721 78.326784 397.060054 100.46301 419.19628 
C 122.599235 441.332505 148.880568 458.89313 177.802941 470.87317 
C 206.725313 482.853209 237.726259 489.01968 269.031609 489.01968 
C 300.33696 489.01968 331.337905 482.853209 360.260278 470.87317 
C 389.182651 458.89313 415.463983 441.332505 437.600209 419.19628 
C 459.736435 397.060054 477.29706 370.778721 489.277099 341.856349 
C 501.257138 312.933976 507.423609 281.933031 507.423609 250.62768 
" style="fill: none; stroke: #cccccc; stroke-linejoin: miter; stroke-linecap: square"/>
   </g>
   <g id="legend_1">
    <g id="patch_9">
     <path d="M 537.562809 75.951563 
L 625.211559 75.951563 
Q 627.011559 75.951563 627.011559 74.151563 
L 627.011559 9 
Q 627.011559 7.2 625.211559 7.2 
L 537.562809 7.2 
Q 535.762809 7.2 535.762809 9 
L 535.762809 74.151563 
Q 535.762809 75.951563 537.562809 75.951563 
z
" style="fill: #ffffff; opacity: 0.8; stroke: #cccccc; stroke-linejoin: miter"/>
    </g>
    <g id="line2d_17">
     <path d="M 539.362809 14.488594 
L 548.362809 14.488594 
L 557.362809 14.488594 
" style="fill: none; stroke: #1f77b4; stroke-width: 1.8; stroke-linecap: round"/>
    </g>
    <g id="text_7">
     <!-- c120-bm25+ -->
     <g style="fill: #262626" transform="translate(564.562809 17.638594) scale(0.09 -0.09)">
      <defs>
       <path id="DejaVuSans-32" d="M 1228 531 
L 3431 531 
L 3431 0 
L 469 0 
L 469 531 
Q 828 903 1448 1529 
Q 2069 2156 2228 2338 
Q 2531 2678 2651 2914 
Q 2772 3150 2772 3378 
Q 2772 3750 2511 3984 
Q 2250 4219 1831 4219 
Q 1534 4219 1204 4116 
Q 875 4013 500 3803 
L 500 4441 
Q 881 4594 1212 4672 
Q 1544 4750 1819 4750 
Q 2544 4750 2975 4387 
Q 3406 4025 3406 3419 
Q 3406 3131 3298 2873 
Q 3191 2616 2906 2266 
Q 2828 2175 2409 1742 
Q 1991 1309 1228 531 
z
" transform="scale(0.015625)"/>
       <path id="DejaVuSans-2d" d="M 313 2009 
L 1997 2009 
L 1997 1497 
L 313 1497 
L 313 2009 
z
" transform="scale(0.015625)"/>
       <path id="DejaVuSans-62" d="M 3116 1747 
Q 3116 2381 2855 2742 
Q 2594 3103 2138 3103 
Q 1681 3103 1420 2742 
Q 1159 2381 1159 1747 
Q 1159 1113 1420 752 
Q 1681 391 2138 391 
Q 2594 391 2855 752 
Q 3116 1113 3116 1747 
z
M 1159 2969 
Q 1341 3281 1617 3432 
Q 1894 3584 2278 3584 
Q 2916 3584 3314 3078 
Q 3713 2572 3713 1747 
Q 3713 922 3314 415 
Q 2916 -91 2278 -91 
Q 1894 -91 1617 61 
Q 1341 213 1159 525 
L 1159 0 
L 581 0 
L 581 4863 
L 1159 4863 
L 1159 2969 
z
" transform="scale(0.015625)"/>
       <path id="DejaVuSans-6d" d="M 3328 2828 
Q 3544 3216 3844 3400 
Q 4144 3584 4550 3584 
Q 5097 3584 5394 3201 
Q 5691 2819 5691 2113 
L 5691 0 
L 5113 0 
L 5113 2094 
Q 5113 2597 4934 2840 
Q 4756 3084 4391 3084 
Q 3944 3084 3684 2787 
Q 3425 2491 3425 1978 
L 3425 0 
L 2847 0 
L 2847 2094 
Q 2847 2600 2669 2842 
Q 2491 3084 2119 3084 
Q 1678 3084 1418 2786 
Q 1159 2488 1159 1978 
L 1159 0 
L 581 0 
L 581 3500 
L 1159 3500 
L 1159 2956 
Q 1356 3278 1631 3431 
Q 1906 3584 2284 3584 
Q 2666 3584 2933 3390 
Q 3200 3197 3328 2828 
z
" transform="scale(0.015625)"/>
       <path id="DejaVuSans-35" d="M 691 4666 
L 3169 4666 
L 3169 4134 
L 1269 4134 
L 1269 2991 
Q 1406 3038 1543 3061 
Q 1681 3084 1819 3084 
Q 2600 3084 3056 2656 
Q 3513 2228 3513 1497 
Q 3513 744 3044 326 
Q 2575 -91 1722 -91 
Q 1428 -91 1123 -41 
Q 819 9 494 109 
L 494 744 
Q 775 591 1075 516 
Q 1375 441 1709 441 
Q 2250 441 2565 725 
Q 2881 1009 2881 1497 
Q 2881 1984 2565 2268 
Q 2250 2553 1709 2553 
Q 1456 2553 1204 2497 
Q 953 2441 691 2322 
L 691 4666 
z
" transform="scale(0.015625)"/>
       <path id="DejaVuSans-2b" d="M 2944 4013 
L 2944 2272 
L 4684 2272 
L 4684 1741 
L 2944 1741 
L 2944 0 
L 2419 0 
L 2419 1741 
L 678 1741 
L 678 2272 
L 2419 2272 
L 2419 4013 
L 2944 4013 
z
" transform="scale(0.015625)"/>
      </defs>
      <use xlink:href="#DejaVuSans-63"/>
      <use xlink:href="#DejaVuSans-31" transform="translate(54.980469 0)"/>
      <use xlink:href="#DejaVuSans-32" transform="translate(118.603516 0)"/>
      <use xlink:href="#DejaVuSans-30" transform="translate(182.226562 0)"/>
      <use xlink:href="#DejaVuSans-2d" transform="translate(245.849609 0)"/>
      <use xlink:href="#DejaVuSans-62" transform="translate(281.933594 0)"/>
      <use xlink:href="#DejaVuSans-6d" transform="translate(345.410156 0)"/>
      <use xlink:href="#DejaVuSans-32" transform="translate(442.822266 0)"/>
      <use xlink:href="#DejaVuSans-35" transform="translate(506.445312 0)"/>
      <use xlink:href="#DejaVuSans-2b" transform="translate(570.068359 0)"/>
     </g>
    </g>
    <g id="line2d_18">
     <path d="M 539.362809 27.698906 
L 548.362809 27.698906 
L 557.362809 27.698906 
" style="fill: none; stroke: #ff7f0e; stroke-width: 1.8; stroke-linecap: round"/>
    </g>
    <g id="text_8">
     <!-- c120-bm25 -->
     <g style="fill: #262626" transform="translate(564.562809 30.848906) scale(0.09 -0.09)">
      <use xlink:href="#DejaVuSans-63"/>
      <use xlink:href="#DejaVuSans-31" transform="translate(54.980469 0)"/>
      <use xlink:href="#DejaVuSans-32" transform="translate(118.603516 0)"/>
      <use xlink:href="#DejaVuSans-30" transform="translate(182.226562 0)"/>
      <use xlink:href="#DejaVuSans-2d" transform="translate(245.849609 0)"/>
      <use xlink:href="#DejaVuSans-62" transform="translate(281.933594 0)"/>
      <use xlink:href="#DejaVuSans-6d" transform="translate(345.410156 0)"/>
      <use xlink:href="#DejaVuSans-32" transform="translate(442.822266 0)"/>
      <use xlink:href="#DejaVuSans-35" transform="translate(506.445312 0)"/>
     </g>
    </g>
    <g id="line2d_19">
     <path d="M 539.362809 40.909219 
L 548.362809 40.909219 
L 557.362809 40.909219 
" style="fill: none; stroke: #2ca02c; stroke-width: 1.8; stroke-linecap: round"/>
    </g>
    <g id="text_9">
     <!-- c200-bm25 -->
     <g style="fill: #262626" transform="translate(564.562809 44.059219) scale(0.09 -0.09)">
      <use xlink:href="#DejaVuSans-63"/>
      <use xlink:href="#DejaVuSans-32" transform="translate(54.980469 0)"/>
      <use xlink:href="#DejaVuSans-30" transform="translate(118.603516 0)"/>
      <use xlink:href="#DejaVuSans-30" transform="translate(182.226562 0)"/>
      <use xlink:href="#DejaVuSans-2d" transform="translate(245.849609 0)"/>
      <use xlink:href="#DejaVuSans-62" transform="translate(281.933594 0)"/>
      <use xlink:href="#DejaVuSans-6d" transform="translate(345.410156 0)"/>
      <use xlink:href="#DejaVuSans-32" transform="translate(442.822266 0)"/>
      <use xlink:href="#DejaVuSans-35" transform="translate(506.445312 0)"/>
     </g>
    </g>
    <g id="line2d_20">
     <path d="M 539.362809 54.119531 
L 548.362809 54.119531 
L 557.362809 54.119531 
" style="fill: none; stroke: #d62728; stroke-width: 1.8; stroke-linecap: round"/>
    </g>
    <g id="text_10">
     <!-- c200-bm25+ -->
     <g style="fill: #262626" transform="translate(564.562809 57.269531) scale(0.09 -0.09)">
      <use xlink:href="#DejaVuSans-63"/>
      <use xlink:href="#DejaVuSans-32" transform="translate(54.980469 0)"/>
      <use xlink:href="#DejaVuSans-30" transform="translate(118.603516 0)"/>
      <use xlink:href="#DejaVuSans-30" transform="translate(182.226562 0)"/>
      <use xlink:href="#DejaVuSans-2d" transform="translate(245.849609 0)"/>
      <use xlink:href="#DejaVuSans-62" transform="translate(281.933594 0)"/>
      <use xlink:href="#DejaVuSans-6d" transform="translate(345.410156 0)"/>
      <use xlink:href="#DejaVuSans-32" transform="translate(442.822266 0)"/>
      <use xlink:href="#DejaVuSans-35" transform="translate(506.445312 0)"/>
      <use xlink:href="#DejaVuSans-2b" transform="translate(570.068359 0)"/>
     </g>
    </g>
    <g id="line2d_21">
     <path d="M 539.362809 67.329844 
L 548.362809 67.329844 
L 557.362809 67.329844 
" style="fill: none; stroke: #9467bd; stroke-width: 1.8; stroke-linecap: round"/>
    </g>
    <g id="text_11">
     <!-- c80-bm25+ -->
     <g style="fill: #262626" transform="translate(564.562809 70.479844) scale(0.09 -0.09)">
      <defs>
       <path id="DejaVuSans-38" d="M 2034 2216 
Q 1584 2216 1326 1975 
Q 1069 1734 1069 1313 
Q 1069 891 1326 650 
Q 1584 409 2034 409 
Q 2484 409 2743 651 
Q 3003 894 3003 1313 
Q 3003 1734 2745 1975 
Q 2488 2216 2034 2216 
z
M 1403 2484 
Q 997 2584 770 2862 
Q 544 3141 544 3541 
Q 544 4100 942 4425 
Q 1341 4750 2034 4750 
Q 2731 4750 3128 4425 
Q 3525 4100 3525 3541 
Q 3525 3141 3298 2862 
Q 3072 2584 2669 2484 
Q 3125 2378 3379 2068 
Q 3634 1759 3634 1313 
Q 3634 634 3220 271 
Q 2806 -91 2034 -91 
Q 1263 -91 848 271 
Q 434 634 434 1313 
Q 434 1759 690 2068 
Q 947 2378 1403 2484 
z
M 1172 3481 
Q 1172 3119 1398 2916 
Q 1625 2713 2034 2713 
Q 2441 2713 2670 2916 
Q 2900 3119 2900 3481 
Q 2900 3844 2670 4047 
Q 2441 4250 2034 4250 
Q 1625 4250 1398 4047 
Q 1172 3844 1172 3481 
z
" transform="scale(0.015625)"/>
      </defs>
      <use xlink:href="#DejaVuSans-63"/>
      <use xlink:href="#DejaVuSans-38" transform="translate(54.980469 0)"/>
      <use xlink:href="#DejaVuSans-30" transform="translate(118.603516 0)"/>
      <use xlink:href="#DejaVuSans-2d" transform="translate(182.226562 0)"/>
      <use xlink:href="#DejaVuSans-62" transform="translate(218.310547 0)"/>
      <use xlink:href="#DejaVuSans-6d" transform="translate(281.787109 0)"/>
      <use xlink:href="#DejaVuSans-32" transform="translate(379.199219 0)"/>
      <use xlink:href="#DejaVuSans-35" transform="translate(442.822266 0)"/>
      <use xlink:href="#DejaVuSans-2b" transform="translate(506.445312 0)"/>
     </g>
    </g>
   </g>
  </g>
 </g>
 <defs>
  <clipPath id="pa4185e2959">
   <path d="M 507.423609 250.62768 
C 507.423609 219.322329 501.257138 188.321384 489.277099 159.399011 
C 477.29706 130.476639 459.736435 104.195306 437.600209 82.05908 
C 415.463983 59.922855 389.182651 42.36223 360.260278 30.38219 
C 331.337905 18.402151 300.33696 12.23568 269.031609 12.23568 
C 237.726259 12.23568 206.725313 18.402151 177.802941 30.38219 
C 148.880568 42.36223 122.599235 59.922855 100.46301 82.05908 
C 78.326784 104.195306 60.766159 130.476639 48.78612 159.399011 
C 36.806081 188.321384 30.639609 219.322329 30.639609 250.62768 
C 30.639609 281.933031 36.806081 312.933976 48.78612 341.856349 
C 60.766159 370.778721 78.326784 397.060054 100.46301 419.19628 
C 122.599235 441.332505 148.880568 458.89313 177.802941 470.87317 
C 206.725313 482.853209 237.726259 489.01968 269.031609 489.01968 
C 300.33696 489.01968 331.337905 482.853209 360.260278 470.87317 
C 389.182651 458.89313 415.463983 441.332505 437.600209 419.19628 
C 459.736435 397.060054 477.29706 370.778721 489.277099 341.856349 
C 501.257138 312.933976 507.423609 281.933031 507.423609 250.62768 
M 269.031609 250.62768 
C 269.031609 250.62768 269.031609 250.62768 269.031609 250.62768 
C 269.031609 250.62768 269.031609 250.62768 269.031609 250.62768 
C 269.031609 250.62768 269.031609 250.62768 269.031609 250.62768 
C 269.031609 250.62768 269.031609 250.62768 269.031609 250.62768 
C 269.031609 250.62768 269.031609 250.62768 269.031609 250.62768 
C 269.031609 250.62768 269.031609 250.62768 269.031609 250.62768 
C 269.031609 250.62768 269.031609 250.62768 269.031609 250.62768 
C 269.031609 250.62768 269.031609 250.62768 269.031609 250.62768 
C 269.031609 250.62768 269.031609 250.62768 269.031609 250.62768 
C 269.031609 250.62768 269.031609 250.62768 269.031609 250.62768 
C 269.031609 250.62768 269.031609 250.62768 269.031609 250.62768 
C 269.031609 250.62768 269.031609 250.62768 269.031609 250.62768 
C 269.031609 250.62768 269.031609 250.62768 269.031609 250.62768 
C 269.031609 250.62768 269.031609 250.62768 269.031609 250.62768 
C 269.031609 250.62768 269.031609 250.62768 269.031609 250.62768 
C 269.031609 250.62768 269.031609 250.62768 269.031609 250.62768 
z
"/>
  </clipPath>
 </defs>
</svg>
