<?xml version="1.0" encoding="utf-8" standalone="no"?>
<!DOCTYPE svg PUBLIC "-//W3C//DTD SVG 1.1//EN"
  "http://www.w3.org/Graphics/SVG/1.1/DTD/svg11.dtd">
<svg xmlns:xlink="http://www.w3.org/1999/xlink" width="624.6583pt" height="386.45482pt" viewBox="0 0 624.6583 386.45482" xmlns="http://www.w3.org/2000/svg" version="1.1">
 <metadata>
  <rdf:RDF xmlns:dc="http://purl.org/dc/elements/1.1/" xmlns:cc="http://creativecommons.org/ns#" xmlns:rdf="http://www.w3.org/1999/02/22-rdf-syntax-ns#">
   <cc:Work>
    <dc:type rdf:resource="http://purl.org/dc/dcmitype/StillImage"/>
    <dc:date>2026-04-29T17:57:27.505406</dc:date>
    <dc:format>image/svg+xml</dc:format>
    <dc:creator>
     <cc:Agent>
      <dc:title>Matplotlib v3.10.9, https://matplotlib.org/</dc:title>
     </cc:Agent>
    </dc:creator>
   </cc:Work>
  </rdf:RDF>
 </metadata>
 <defs>
  <style type="text/css">*{stroke-linejoin: round; stroke-linecap: butt}</style>
 </defs>
 <g id="figure_1">
  <g id="patch_1">
   <path d="M 0 386.45482 
L 624.6583 386.45482 
L 624.6583 0 
L 0 0 
z
" style="fill: #ffffff"/>
  </g>
  <g id="axes_1">
   <g id="patch_2">
    <path d="M 39.65875 352.39857 
L 530.69875 352.39857 
L 530.69875 8.67057 
L 39.65875 8.67057 
z
" style="fill: #ffffff"/>
   </g>
   <g id="matplotlib.axis_1">
    <g id="xtick_1">
     <g id="line2d_1">
      <path d="M 88.842868 352.39857 
L 88.842868 8.67057 
" clip-path="url(#p28bbacf3dc)" style="fill: none; stroke: #cccccc; stroke-width: 0.8; stroke-linecap: round"/>
     </g>
     <g id="line2d_2"/>
     <g id="text_1">
      <!-- 4 -->
      <g style="fill: #262626" transform="translate(85.979743 362.737164) scale(0.09 -0.09)">
       <defs>
        <path id="DejaVuSans-34" d="M 2419 4116 
L 825 1625 
L 2419 1625 
L 2419 4116 
z
M 2253 4666 
L 3047 4666 
L 3047 1625 
L 3713 1625 
L 3713 1100 
L 3047 1100 
L 3047 0 
L 2419 0 
L 2419 1100 
L 313 1100 
L 313 1709 
L 2253 4666 
z
" transform="scale(0.015625)"/>
       </defs>
       <use xlink:href="#DejaVuSans-34"/>
      </g>
     </g>
    </g>
    <g id="xtick_2">
     <g id="line2d_3">
      <path d="M 147.408636 352.39857 
L 147.408636 8.67057 
" clip-path="url(#p28bbacf3dc)" style="fill: none; stroke: #cccccc; stroke-width: 0.8; stroke-linecap: round"/>
     </g>
     <g id="line2d_4"/>
     <g id="text_2">
      <!-- 6 -->
      <g style="fill: #262626" transform="translate(144.545511 362.737164) scale(0.09 -0.09)">
       <defs>
        <path id="DejaVuSans-36" d="M 2113 2584 
Q 1688 2584 1439 2293 
Q 1191 2003 1191 1497 
Q 1191 994 1439 701 
Q 1688 409 2113 409 
Q 2538 409 2786 701 
Q 3034 994 3034 1497 
Q 3034 2003 2786 2293 
Q 2538 2584 2113 2584 
z
M 3366 4563 
L 3366 3988 
Q 3128 4100 2886 4159 
Q 2644 4219 2406 4219 
Q 1781 4219 1451 3797 
Q 1122 3375 1075 2522 
Q 1259 2794 1537 2939 
Q 1816 3084 2150 3084 
Q 2853 3084 3261 2657 
Q 3669 2231 3669 1497 
Q 3669 778 3244 343 
Q 2819 -91 2113 -91 
Q 1303 -91 875 529 
Q 447 1150 447 2328 
Q 447 3434 972 4092 
Q 1497 4750 2381 4750 
Q 2619 4750 2861 4703 
Q 3103 4656 3366 4563 
z
" transform="scale(0.015625)"/>
       </defs>
       <use xlink:href="#DejaVuSans-36"/>
      </g>
     </g>
    </g>
    <g id="xtick_3">
     <g id="line2d_5">
      <path d="M 205.974405 352.39857 
L 205.974405 8.67057 
" clip-path="url(#p28bbacf3dc)" style="fill: none; stroke: #cccccc; stroke-width: 0.8; stroke-linecap: round"/>
     </g>
     <g id="line2d_6"/>
     <g id="text_3">
      <!-- 8 -->
      <g style="fill: #262626" transform="translate(203.11128 362.737164) scale(0.09 -0.09)">
       <defs>
        <path id="DejaVuSans-38" d="M 2034 2216 
Q 1584 2216 1326 1975 
Q 1069 1734 1069 1313 
Q 1069 891 1326 650 
Q 1584 409 2034 409 
Q 2484 409 2743 651 
Q 3003 894 3003 1313 
Q 3003 1734 2745 1975 
Q 2488 2216 2034 2216 
z
M 1403 2484 
Q 997 2584 770 2862 
Q 544 3141 544 3541 
Q 544 4100 942 4425 
Q 1341 4750 2034 4750 
Q 2731 4750 3128 4425 
Q 3525 4100 3525 3541 
Q 3525 3141 3298 2862 
Q 3072 2584 2669 2484 
Q 3125 2378 3379 2068 
Q 3634 1759 3634 1313 
Q 3634 634 3220 271 
Q 2806 -91 2034 -91 
Q 1263 -91 848 271 
Q 434 634 434 1313 
Q 434 1759 690 2068 
Q 947 2378 1403 2484 
z
M 1172 3481 
Q 1172 3119 1398 2916 
Q 1625 2713 2034 2713 
Q 2441 2713 2670 2916 
Q 2900 3119 2900 3481 
Q 2900 3844 2670 4047 
Q 2441 4250 2034 4250 
Q 1625 4250 1398 4047 
Q 1172 3844 1172 3481 
z
" transform="scale(0.015625)"/>
       </defs>
       <use xlink:href="#DejaVuSans-38"/>
      </g>
     </g>
    </g>
    <g id="xtick_4">
     <g id="line2d_7">
      <path d="M 264.540173 352.39857 
L 264.540173 8.67057 
" clip-path="url(#p28bbacf3dc)" style="fill: none; stroke: #cccccc; stroke-width: 0.8; stroke-linecap: round"/>
     </g>
     <g id="line2d_8"/>
     <g id="text_4">
      <!-- 10 -->
      <g style="fill: #262626" transform="translate(258.813923 362.737164) scale(0.09 -0.09)">
       <defs>
        <path id="DejaVuSans-31" d="M 794 531 
L 1825 531 
L 1825 4091 
L 703 3866 
L 703 4441 
L 1819 4666 
L 2450 4666 
L 2450 531 
L 3481 531 
L 3481 0 
L 794 0 
L 794 531 
z
" transform="scale(0.015625)"/>
        <path id="DejaVuSans-30" d="M 2034 4250 
Q 1547 4250 1301 3770 
Q 1056 3291 1056 2328 
Q 1056 1369 1301 889 
Q 1547 409 2034 409 
Q 2525 409 2770 889 
Q 3016 1369 3016 2328 
Q 3016 3291 2770 3770 
Q 2525 4250 2034 4250 
z
M 2034 4750 
Q 2819 4750 3233 4129 
Q 3647 3509 3647 2328 
Q 3647 1150 3233 529 
Q 2819 -91 2034 -91 
Q 1250 -91 836 529 
Q 422 1150 422 2328 
Q 422 3509 836 4129 
Q 1250 4750 2034 4750 
z
" transform="scale(0.015625)"/>
       </defs>
       <use xlink:href="#DejaVuSans-31"/>
       <use xlink:href="#DejaVuSans-30" transform="translate(63.623047 0)"/>
      </g>
     </g>
    </g>
    <g id="xtick_5">
     <g id="line2d_9">
      <path d="M 323.105942 352.39857 
L 323.105942 8.67057 
" clip-path="url(#p28bbacf3dc)" style="fill: none; stroke: #cccccc; stroke-width: 0.8; stroke-linecap: round"/>
     </g>
     <g id="line2d_10"/>
     <g id="text_5">
      <!-- 12 -->
      <g style="fill: #262626" transform="translate(317.379692 362.737164) scale(0.09 -0.09)">
       <defs>
        <path id="DejaVuSans-32" d="M 1228 531 
L 3431 531 
L 3431 0 
L 469 0 
L 469 531 
Q 828 903 1448 1529 
Q 2069 2156 2228 2338 
Q 2531 2678 2651 2914 
Q 2772 3150 2772 3378 
Q 2772 3750 2511 3984 
Q 2250 4219 1831 4219 
Q 1534 4219 1204 4116 
Q 875 4013 500 3803 
L 500 4441 
Q 881 4594 1212 4672 
Q 1544 4750 1819 4750 
Q 2544 4750 2975 4387 
Q 3406 4025 3406 3419 
Q 3406 3131 3298 2873 
Q 3191 2616 2906 2266 
Q 2828 2175 2409 1742 
Q 1991 1309 1228 531 
z
" transform="scale(0.015625)"/>
       </defs>
       <use xlink:href="#DejaVuSans-31"/>
       <use xlink:href="#DejaVuSans-32" transform="translate(63.623047 0)"/>
      </g>
     </g>
    </g>
    <g id="xtick_6">
     <g id="line2d_11">
      <path d="M 381.67171 352.39857 
L 381.67171 8.67057 
" clip-path="url(#p28bbacf3dc)" style="fill: none; stroke: #cccccc; stroke-width: 0.8; stroke-linecap: round"/>
     </g>
     <g id="line2d_12"/>
     <g id="text_6">
      <!-- 14 -->
      <g style="fill: #262626" transform="translate(375.94546 362.737164) scale(0.09 -0.09)">
       <use xlink:href="#DejaVuSans-31"/>
       <use xlink:href="#DejaVuSans-34" transform="translate(63.623047 0)"/>
      </g>
     </g>
    </g>
    <g id="xtick_7">
     <g id="line2d_13">
      <path d="M 440.237478 352.39857 
L 440.237478 8.67057 
" clip-path="url(#p28bbacf3dc)" style="fill: none; stroke: #cccccc; stroke-width: 0.8; stroke-linecap: round"/>
     </g>
     <g id="line2d_14"/>
     <g id="text_7">
      <!-- 16 -->
      <g style="fill: #262626" transform="translate(434.511228 362.737164) scale(0.09 -0.09)">
       <use xlink:href="#DejaVuSans-31"/>
       <use xlink:href="#DejaVuSans-36" transform="translate(63.623047 0)"/>
      </g>
     </g>
    </g>
    <g id="xtick_8">
     <g id="line2d_15">
      <path d="M 498.803247 352.39857 
L 498.803247 8.67057 
" clip-path="url(#p28bbacf3dc)" style="fill: none; stroke: #cccccc; stroke-width: 0.8; stroke-linecap: round"/>
     </g>
     <g id="line2d_16"/>
     <g id="text_8">
      <!-- 18 -->
      <g style="fill: #262626" transform="translate(493.076997 362.737164) scale(0.09 -0.09)">
       <use xlink:href="#DejaVuSans-31"/>
       <use xlink:href="#DejaVuSans-38" transform="translate(63.623047 0)"/>
      </g>
     </g>
    </g>
    <g id="text_9">
     <!-- Median latency on full corpus (ms) -->
     <g style="fill: #262626" transform="translate(189.893828 376.967164) scale(0.11 -0.11)">
      <defs>
       <path id="DejaVuSans-4d" d="M 628 4666 
L 1569 4666 
L 2759 1491 
L 3956 4666 
L 4897 4666 
L 4897 0 
L 4281 0 
L 4281 4097 
L 3078 897 
L 2444 897 
L 1241 4097 
L 1241 0 
L 628 0 
L 628 4666 
z
" transform="scale(0.015625)"/>
       <path id="DejaVuSans-65" d="M 3597 1894 
L 3597 1613 
L 953 1613 
Q 991 1019 1311 708 
Q 1631 397 2203 397 
Q 2534 397 2845 478 
Q 3156 559 3463 722 
L 3463 178 
Q 3153 47 2828 -22 
Q 2503 -91 2169 -91 
Q 1331 -91 842 396 
Q 353 884 353 1716 
Q 353 2575 817 3079 
Q 1281 3584 2069 3584 
Q 2775 3584 3186 3129 
Q 3597 2675 3597 1894 
z
M 3022 2063 
Q 3016 2534 2758 2815 
Q 2500 3097 2075 3097 
Q 1594 3097 1305 2825 
Q 1016 2553 972 2059 
L 3022 2063 
z
" transform="scale(0.015625)"/>
       <path id="DejaVuSans-64" d="M 2906 2969 
L 2906 4863 
L 3481 4863 
L 3481 0 
L 2906 0 
L 2906 525 
Q 2725 213 2448 61 
Q 2172 -91 1784 -91 
Q 1150 -91 751 415 
Q 353 922 353 1747 
Q 353 2572 751 3078 
Q 1150 3584 1784 3584 
Q 2172 3584 2448 3432 
Q 2725 3281 2906 2969 
z
M 947 1747 
Q 947 1113 1208 752 
Q 1469 391 1925 391 
Q 2381 391 2643 752 
Q 2906 1113 2906 1747 
Q 2906 2381 2643 2742 
Q 2381 3103 1925 3103 
Q 1469 3103 1208 2742 
Q 947 2381 947 1747 
z
" transform="scale(0.015625)"/>
       <path id="DejaVuSans-69" d="M 603 3500 
L 1178 3500 
L 1178 0 
L 603 0 
L 603 3500 
z
M 603 4863 
L 1178 4863 
L 1178 4134 
L 603 4134 
L 603 4863 
z
" transform="scale(0.015625)"/>
       <path id="DejaVuSans-61" d="M 2194 1759 
Q 1497 1759 1228 1600 
Q 959 1441 959 1056 
Q 959 750 1161 570 
Q 1363 391 1709 391 
Q 2188 391 2477 730 
Q 2766 1069 2766 1631 
L 2766 1759 
L 2194 1759 
z
M 3341 1997 
L 3341 0 
L 2766 0 
L 2766 531 
Q 2569 213 2275 61 
Q 1981 -91 1556 -91 
Q 1019 -91 701 211 
Q 384 513 384 1019 
Q 384 1609 779 1909 
Q 1175 2209 1959 2209 
L 2766 2209 
L 2766 2266 
Q 2766 2663 2505 2880 
Q 2244 3097 1772 3097 
Q 1472 3097 1187 3025 
Q 903 2953 641 2809 
L 641 3341 
Q 956 3463 1253 3523 
Q 1550 3584 1831 3584 
Q 2591 3584 2966 3190 
Q 3341 2797 3341 1997 
z
" transform="scale(0.015625)"/>
       <path id="DejaVuSans-6e" d="M 3513 2113 
L 3513 0 
L 2938 0 
L 2938 2094 
Q 2938 2591 2744 2837 
Q 2550 3084 2163 3084 
Q 1697 3084 1428 2787 
Q 1159 2491 1159 1978 
L 1159 0 
L 581 0 
L 581 3500 
L 1159 3500 
L 1159 2956 
Q 1366 3272 1645 3428 
Q 1925 3584 2291 3584 
Q 2894 3584 3203 3211 
Q 3513 2838 3513 2113 
z
" transform="scale(0.015625)"/>
       <path id="DejaVuSans-20" transform="scale(0.015625)"/>
       <path id="DejaVuSans-6c" d="M 603 4863 
L 1178 4863 
L 1178 0 
L 603 0 
L 603 4863 
z
" transform="scale(0.015625)"/>
       <path id="DejaVuSans-74" d="M 1172 4494 
L 1172 3500 
L 2356 3500 
L 2356 3053 
L 1172 3053 
L 1172 1153 
Q 1172 725 1289 603 
Q 1406 481 1766 481 
L 2356 481 
L 2356 0 
L 1766 0 
Q 1100 0 847 248 
Q 594 497 594 1153 
L 594 3053 
L 172 3053 
L 172 3500 
L 594 3500 
L 594 4494 
L 1172 4494 
z
" transform="scale(0.015625)"/>
       <path id="DejaVuSans-63" d="M 3122 3366 
L 3122 2828 
Q 2878 2963 2633 3030 
Q 2388 3097 2138 3097 
Q 1578 3097 1268 2742 
Q 959 2388 959 1747 
Q 959 1106 1268 751 
Q 1578 397 2138 397 
Q 2388 397 2633 464 
Q 2878 531 3122 666 
L 3122 134 
Q 2881 22 2623 -34 
Q 2366 -91 2075 -91 
Q 1284 -91 818 406 
Q 353 903 353 1747 
Q 353 2603 823 3093 
Q 1294 3584 2113 3584 
Q 2378 3584 2631 3529 
Q 2884 3475 3122 3366 
z
" transform="scale(0.015625)"/>
       <path id="DejaVuSans-79" d="M 2059 -325 
Q 1816 -950 1584 -1140 
Q 1353 -1331 966 -1331 
L 506 -1331 
L 506 -850 
L 844 -850 
Q 1081 -850 1212 -737 
Q 1344 -625 1503 -206 
L 1606 56 
L 191 3500 
L 800 3500 
L 1894 763 
L 2988 3500 
L 3597 3500 
L 2059 -325 
z
" transform="scale(0.015625)"/>
       <path id="DejaVuSans-6f" d="M 1959 3097 
Q 1497 3097 1228 2736 
Q 959 2375 959 1747 
Q 959 1119 1226 758 
Q 1494 397 1959 397 
Q 2419 397 2687 759 
Q 2956 1122 2956 1747 
Q 2956 2369 2687 2733 
Q 2419 3097 1959 3097 
z
M 1959 3584 
Q 2709 3584 3137 3096 
Q 3566 2609 3566 1747 
Q 3566 888 3137 398 
Q 2709 -91 1959 -91 
Q 1206 -91 779 398 
Q 353 888 353 1747 
Q 353 2609 779 3096 
Q 1206 3584 1959 3584 
z
" transform="scale(0.015625)"/>
       <path id="DejaVuSans-66" d="M 2375 4863 
L 2375 4384 
L 1825 4384 
Q 1516 4384 1395 4259 
Q 1275 4134 1275 3809 
L 1275 3500 
L 2222 3500 
L 2222 3053 
L 1275 3053 
L 1275 0 
L 697 0 
L 697 3053 
L 147 3053 
L 147 3500 
L 697 3500 
L 697 3744 
Q 697 4328 969 4595 
Q 1241 4863 1831 4863 
L 2375 4863 
z
" transform="scale(0.015625)"/>
       <path id="DejaVuSans-75" d="M 544 1381 
L 544 3500 
L 1119 3500 
L 1119 1403 
Q 1119 906 1312 657 
Q 1506 409 1894 409 
Q 2359 409 2629 706 
Q 2900 1003 2900 1516 
L 2900 3500 
L 3475 3500 
L 3475 0 
L 2900 0 
L 2900 538 
Q 2691 219 2414 64 
Q 2138 -91 1772 -91 
Q 1169 -91 856 284 
Q 544 659 544 1381 
z
M 1991 3584 
L 1991 3584 
z
" transform="scale(0.015625)"/>
       <path id="DejaVuSans-72" d="M 2631 2963 
Q 2534 3019 2420 3045 
Q 2306 3072 2169 3072 
Q 1681 3072 1420 2755 
Q 1159 2438 1159 1844 
L 1159 0 
L 581 0 
L 581 3500 
L 1159 3500 
L 1159 2956 
Q 1341 3275 1631 3429 
Q 1922 3584 2338 3584 
Q 2397 3584 2469 3576 
Q 2541 3569 2628 3553 
L 2631 2963 
z
" transform="scale(0.015625)"/>
       <path id="DejaVuSans-70" d="M 1159 525 
L 1159 -1331 
L 581 -1331 
L 581 3500 
L 1159 3500 
L 1159 2969 
Q 1341 3281 1617 3432 
Q 1894 3584 2278 3584 
Q 2916 3584 3314 3078 
Q 3713 2572 3713 1747 
Q 3713 922 3314 415 
Q 2916 -91 2278 -91 
Q 1894 -91 1617 61 
Q 1341 213 1159 525 
z
M 3116 1747 
Q 3116 2381 2855 2742 
Q 2594 3103 2138 3103 
Q 1681 3103 1420 2742 
Q 1159 2381 1159 1747 
Q 1159 1113 1420 752 
Q 1681 391 2138 391 
Q 2594 391 2855 752 
Q 3116 1113 3116 1747 
z
" transform="scale(0.015625)"/>
       <path id="DejaVuSans-73" d="M 2834 3397 
L 2834 2853 
Q 2591 2978 2328 3040 
Q 2066 3103 1784 3103 
Q 1356 3103 1142 2972 
Q 928 2841 928 2578 
Q 928 2378 1081 2264 
Q 1234 2150 1697 2047 
L 1894 2003 
Q 2506 1872 2764 1633 
Q 3022 1394 3022 966 
Q 3022 478 2636 193 
Q 2250 -91 1575 -91 
Q 1294 -91 989 -36 
Q 684 19 347 128 
L 347 722 
Q 666 556 975 473 
Q 1284 391 1588 391 
Q 1994 391 2212 530 
Q 2431 669 2431 922 
Q 2431 1156 2273 1281 
Q 2116 1406 1581 1522 
L 1381 1569 
Q 847 1681 609 1914 
Q 372 2147 372 2553 
Q 372 3047 722 3315 
Q 1072 3584 1716 3584 
Q 2034 3584 2315 3537 
Q 2597 3491 2834 3397 
z
" transform="scale(0.015625)"/>
       <path id="DejaVuSans-28" d="M 1984 4856 
Q 1566 4138 1362 3434 
Q 1159 2731 1159 2009 
Q 1159 1288 1364 580 
Q 1569 -128 1984 -844 
L 1484 -844 
Q 1016 -109 783 600 
Q 550 1309 550 2009 
Q 550 2706 781 3412 
Q 1013 4119 1484 4856 
L 1984 4856 
z
" transform="scale(0.015625)"/>
       <path id="DejaVuSans-6d" d="M 3328 2828 
Q 3544 3216 3844 3400 
Q 4144 3584 4550 3584 
Q 5097 3584 5394 3201 
Q 5691 2819 5691 2113 
L 5691 0 
L 5113 0 
L 5113 2094 
Q 5113 2597 4934 2840 
Q 4756 3084 4391 3084 
Q 3944 3084 3684 2787 
Q 3425 2491 3425 1978 
L 3425 0 
L 2847 0 
L 2847 2094 
Q 2847 2600 2669 2842 
Q 2491 3084 2119 3084 
Q 1678 3084 1418 2786 
Q 1159 2488 1159 1978 
L 1159 0 
L 581 0 
L 581 3500 
L 1159 3500 
L 1159 2956 
Q 1356 3278 1631 3431 
Q 1906 3584 2284 3584 
Q 2666 3584 2933 3390 
Q 3200 3197 3328 2828 
z
" transform="scale(0.015625)"/>
       <path id="DejaVuSans-29" d="M 513 4856 
L 1013 4856 
Q 1481 4119 1714 3412 
Q 1947 2706 1947 2009 
Q 1947 1309 1714 600 
Q 1481 -109 1013 -844 
L 513 -844 
Q 928 -128 1133 580 
Q 1338 1288 1338 2009 
Q 1338 2731 1133 3434 
Q 928 4138 513 4856 
z
" transform="scale(0.015625)"/>
      </defs>
      <use xlink:href="#DejaVuSans-4d"/>
      <use xlink:href="#DejaVuSans-65" transform="translate(86.279297 0)"/>
      <use xlink:href="#DejaVuSans-64" transform="translate(147.802734 0)"/>
      <use xlink:href="#DejaVuSans-69" transform="translate(211.279297 0)"/>
      <use xlink:href="#DejaVuSans-61" transform="translate(239.0625 0)"/>
      <use xlink:href="#DejaVuSans-6e" transform="translate(300.341797 0)"/>
      <use xlink:href="#DejaVuSans-20" transform="translate(363.720703 0)"/>
      <use xlink:href="#DejaVuSans-6c" transform="translate(395.507812 0)"/>
      <use xlink:href="#DejaVuSans-61" transform="translate(423.291016 0)"/>
      <use xlink:href="#DejaVuSans-74" transform="translate(484.570312 0)"/>
      <use xlink:href="#DejaVuSans-65" transform="translate(523.779297 0)"/>
      <use xlink:href="#DejaVuSans-6e" transform="translate(585.302734 0)"/>
      <use xlink:href="#DejaVuSans-63" transform="translate(648.681641 0)"/>
      <use xlink:href="#DejaVuSans-79" transform="translate(703.662109 0)"/>
      <use xlink:href="#DejaVuSans-20" transform="translate(762.841797 0)"/>
      <use xlink:href="#DejaVuSans-6f" transform="translate(794.628906 0)"/>
      <use xlink:href="#DejaVuSans-6e" transform="translate(855.810547 0)"/>
      <use xlink:href="#DejaVuSans-20" transform="translate(919.189453 0)"/>
      <use xlink:href="#DejaVuSans-66" transform="translate(950.976562 0)"/>
      <use xlink:href="#DejaVuSans-75" transform="translate(986.181641 0)"/>
      <use xlink:href="#DejaVuSans-6c" transform="translate(1049.560547 0)"/>
      <use xlink:href="#DejaVuSans-6c" transform="translate(1077.34375 0)"/>
      <use xlink:href="#DejaVuSans-20" transform="translate(1105.126953 0)"/>
      <use xlink:href="#DejaVuSans-63" transform="translate(1136.914062 0)"/>
      <use xlink:href="#DejaVuSans-6f" transform="translate(1191.894531 0)"/>
      <use xlink:href="#DejaVuSans-72" transform="translate(1253.076172 0)"/>
      <use xlink:href="#DejaVuSans-70" transform="translate(1294.189453 0)"/>
      <use xlink:href="#DejaVuSans-75" transform="translate(1357.666016 0)"/>
      <use xlink:href="#DejaVuSans-73" transform="translate(1421.044922 0)"/>
      <use xlink:href="#DejaVuSans-20" transform="translate(1473.144531 0)"/>
      <use xlink:href="#DejaVuSans-28" transform="translate(1504.931641 0)"/>
      <use xlink:href="#DejaVuSans-6d" transform="translate(1543.945312 0)"/>
      <use xlink:href="#DejaVuSans-73" transform="translate(1641.357422 0)"/>
      <use xlink:href="#DejaVuSans-29" transform="translate(1693.457031 0)"/>
     </g>
    </g>
   </g>
   <g id="matplotlib.axis_2">
    <g id="ytick_1">
     <g id="line2d_17">
      <path d="M 39.65875 314.514264 
L 530.69875 314.514264 
" clip-path="url(#p28bbacf3dc)" style="fill: none; stroke: #cccccc; stroke-width: 0.8; stroke-linecap: round"/>
     </g>
     <g id="line2d_18"/>
     <g id="text_10">
      <!-- 0.4 -->
      <g style="fill: #262626" transform="translate(21.845938 317.933561) scale(0.09 -0.09)">
       <defs>
        <path id="DejaVuSans-2e" d="M 684 794 
L 1344 794 
L 1344 0 
L 684 0 
L 684 794 
z
" transform="scale(0.015625)"/>
       </defs>
       <use xlink:href="#DejaVuSans-30"/>
       <use xlink:href="#DejaVuSans-2e" transform="translate(63.623047 0)"/>
       <use xlink:href="#DejaVuSans-34" transform="translate(95.410156 0)"/>
      </g>
     </g>
    </g>
    <g id="ytick_2">
     <g id="line2d_19">
      <path d="M 39.65875 238.540522 
L 530.69875 238.540522 
" clip-path="url(#p28bbacf3dc)" style="fill: none; stroke: #cccccc; stroke-width: 0.8; stroke-linecap: round"/>
     </g>
     <g id="line2d_20"/>
     <g id="text_11">
      <!-- 0.5 -->
      <g style="fill: #262626" transform="translate(21.845938 241.959819) scale(0.09 -0.09)">
       <defs>
        <path id="DejaVuSans-35" d="M 691 4666 
L 3169 4666 
L 3169 4134 
L 1269 4134 
L 1269 2991 
Q 1406 3038 1543 3061 
Q 1681 3084 1819 3084 
Q 2600 3084 3056 2656 
Q 3513 2228 3513 1497 
Q 3513 744 3044 326 
Q 2575 -91 1722 -91 
Q 1428 -91 1123 -41 
Q 819 9 494 109 
L 494 744 
Q 775 591 1075 516 
Q 1375 441 1709 441 
Q 2250 441 2565 725 
Q 2881 1009 2881 1497 
Q 2881 1984 2565 2268 
Q 2250 2553 1709 2553 
Q 1456 2553 1204 2497 
Q 953 2441 691 2322 
L 691 4666 
z
" transform="scale(0.015625)"/>
       </defs>
       <use xlink:href="#DejaVuSans-30"/>
       <use xlink:href="#DejaVuSans-2e" transform="translate(63.623047 0)"/>
       <use xlink:href="#DejaVuSans-35" transform="translate(95.410156 0)"/>
      </g>
     </g>
    </g>
    <g id="ytick_3">
     <g id="line2d_21">
      <path d="M 39.65875 162.56678 
L 530.69875 162.56678 
" clip-path="url(#p28bbacf3dc)" style="fill: none; stroke: #cccccc; stroke-width: 0.8; stroke-linecap: round"/>
     </g>
     <g id="line2d_22"/>
     <g id="text_12">
      <!-- 0.6 -->
      <g style="fill: #262626" transform="translate(21.845938 165.986077) scale(0.09 -0.09)">
       <use xlink:href="#DejaVuSans-30"/>
       <use xlink:href="#DejaVuSans-2e" transform="translate(63.623047 0)"/>
       <use xlink:href="#DejaVuSans-36" transform="translate(95.410156 0)"/>
      </g>
     </g>
    </g>
    <g id="ytick_4">
     <g id="line2d_23">
      <path d="M 39.65875 86.593039 
L 530.69875 86.593039 
" clip-path="url(#p28bbacf3dc)" style="fill: none; stroke: #cccccc; stroke-width: 0.8; stroke-linecap: round"/>
     </g>
     <g id="line2d_24"/>
     <g id="text_13">
      <!-- 0.7 -->
      <g style="fill: #262626" transform="translate(21.845938 90.012336) scale(0.09 -0.09)">
       <defs>
        <path id="DejaVuSans-37" d="M 525 4666 
L 3525 4666 
L 3525 4397 
L 1831 0 
L 1172 0 
L 2766 4134 
L 525 4134 
L 525 4666 
z
" transform="scale(0.015625)"/>
       </defs>
       <use xlink:href="#DejaVuSans-30"/>
       <use xlink:href="#DejaVuSans-2e" transform="translate(63.623047 0)"/>
       <use xlink:href="#DejaVuSans-37" transform="translate(95.410156 0)"/>
      </g>
     </g>
    </g>
    <g id="ytick_5">
     <g id="line2d_25">
      <path d="M 39.65875 10.619297 
L 530.69875 10.619297 
" clip-path="url(#p28bbacf3dc)" style="fill: none; stroke: #cccccc; stroke-width: 0.8; stroke-linecap: round"/>
     </g>
     <g id="line2d_26"/>
     <g id="text_14">
      <!-- 0.8 -->
      <g style="fill: #262626" transform="translate(21.845938 14.038594) scale(0.09 -0.09)">
       <use xlink:href="#DejaVuSans-30"/>
       <use xlink:href="#DejaVuSans-2e" transform="translate(63.623047 0)"/>
       <use xlink:href="#DejaVuSans-38" transform="translate(95.410156 0)"/>
      </g>
     </g>
    </g>
    <g id="text_15">
     <!-- nDCG@10 -->
     <g style="fill: #262626" transform="translate(15.558281 208.856133) rotate(-90) scale(0.11 -0.11)">
      <defs>
       <path id="DejaVuSans-44" d="M 1259 4147 
L 1259 519 
L 2022 519 
Q 2988 519 3436 956 
Q 3884 1394 3884 2338 
Q 3884 3275 3436 3711 
Q 2988 4147 2022 4147 
L 1259 4147 
z
M 628 4666 
L 1925 4666 
Q 3281 4666 3915 4102 
Q 4550 3538 4550 2338 
Q 4550 1131 3912 565 
Q 3275 0 1925 0 
L 628 0 
L 628 4666 
z
" transform="scale(0.015625)"/>
       <path id="DejaVuSans-43" d="M 4122 4306 
L 4122 3641 
Q 3803 3938 3442 4084 
Q 3081 4231 2675 4231 
Q 1875 4231 1450 3742 
Q 1025 3253 1025 2328 
Q 1025 1406 1450 917 
Q 1875 428 2675 428 
Q 3081 428 3442 575 
Q 3803 722 4122 1019 
L 4122 359 
Q 3791 134 3420 21 
Q 3050 -91 2638 -91 
Q 1578 -91 968 557 
Q 359 1206 359 2328 
Q 359 3453 968 4101 
Q 1578 4750 2638 4750 
Q 3056 4750 3426 4639 
Q 3797 4528 4122 4306 
z
" transform="scale(0.015625)"/>
       <path id="DejaVuSans-47" d="M 3809 666 
L 3809 1919 
L 2778 1919 
L 2778 2438 
L 4434 2438 
L 4434 434 
Q 4069 175 3628 42 
Q 3188 -91 2688 -91 
Q 1594 -91 976 548 
Q 359 1188 359 2328 
Q 359 3472 976 4111 
Q 1594 4750 2688 4750 
Q 3144 4750 3555 4637 
Q 3966 4525 4313 4306 
L 4313 3634 
Q 3963 3931 3569 4081 
Q 3175 4231 2741 4231 
Q 1884 4231 1454 3753 
Q 1025 3275 1025 2328 
Q 1025 1384 1454 906 
Q 1884 428 2741 428 
Q 3075 428 3337 486 
Q 3600 544 3809 666 
z
" transform="scale(0.015625)"/>
       <path id="DejaVuSans-40" d="M 2381 1678 
Q 2381 1231 2603 976 
Q 2825 722 3213 722 
Q 3597 722 3817 978 
Q 4038 1234 4038 1678 
Q 4038 2116 3813 2373 
Q 3588 2631 3206 2631 
Q 2828 2631 2604 2375 
Q 2381 2119 2381 1678 
z
M 4084 744 
Q 3897 503 3655 389 
Q 3413 275 3091 275 
Q 2553 275 2217 664 
Q 1881 1053 1881 1678 
Q 1881 2303 2218 2693 
Q 2556 3084 3091 3084 
Q 3413 3084 3656 2967 
Q 3900 2850 4084 2613 
L 4084 3022 
L 4531 3022 
L 4531 722 
Q 4988 791 5245 1139 
Q 5503 1488 5503 2041 
Q 5503 2375 5404 2669 
Q 5306 2963 5106 3213 
Q 4781 3622 4314 3839 
Q 3847 4056 3297 4056 
Q 2913 4056 2559 3954 
Q 2206 3853 1906 3653 
Q 1416 3334 1139 2817 
Q 863 2300 863 1697 
Q 863 1200 1042 765 
Q 1222 331 1563 0 
Q 1891 -325 2322 -495 
Q 2753 -666 3244 -666 
Q 3647 -666 4036 -530 
Q 4425 -394 4750 -141 
L 5031 -488 
Q 4641 -791 4180 -952 
Q 3719 -1113 3244 -1113 
Q 2666 -1113 2153 -908 
Q 1641 -703 1241 -313 
Q 841 78 631 592 
Q 422 1106 422 1697 
Q 422 2266 634 2781 
Q 847 3297 1241 3688 
Q 1644 4084 2172 4295 
Q 2700 4506 3291 4506 
Q 3953 4506 4520 4234 
Q 5088 3963 5472 3463 
Q 5706 3156 5829 2797 
Q 5953 2438 5953 2053 
Q 5953 1231 5456 756 
Q 4959 281 4084 263 
L 4084 744 
z
" transform="scale(0.015625)"/>
      </defs>
      <use xlink:href="#DejaVuSans-6e"/>
      <use xlink:href="#DejaVuSans-44" transform="translate(63.378906 0)"/>
      <use xlink:href="#DejaVuSans-43" transform="translate(140.380859 0)"/>
      <use xlink:href="#DejaVuSans-47" transform="translate(210.205078 0)"/>
      <use xlink:href="#DejaVuSans-40" transform="translate(287.695312 0)"/>
      <use xlink:href="#DejaVuSans-31" transform="translate(387.695312 0)"/>
      <use xlink:href="#DejaVuSans-30" transform="translate(451.318359 0)"/>
     </g>
    </g>
   </g>
   <g id="PathCollection_1">
    <path d="M 130.131735 341.517987 
C 131.389703 341.517987 132.596318 341.018191 133.485837 340.128672 
C 134.375355 339.239154 134.875151 338.032539 134.875151 336.77457 
C 134.875151 335.516602 134.375355 334.309987 133.485837 333.420468 
C 132.596318 332.53095 131.389703 332.031154 130.131735 332.031154 
C 128.873766 332.031154 127.667151 332.53095 126.777633 333.420468 
C 125.888114 334.309987 125.388318 335.516602 125.388318 336.77457 
C 125.388318 338.032539 125.888114 339.239154 126.777633 340.128672 
C 127.667151 341.018191 128.873766 341.517987 130.131735 341.517987 
z
" clip-path="url(#p28bbacf3dc)" style="fill: #1f77b4; stroke: #ffffff; stroke-width: 0.758947"/>
    <path d="M 113.303067 328.146608 
L 115.674775 325.7749 
L 118.046483 328.146608 
L 120.418191 325.7749 
L 118.046483 323.403192 
L 120.418191 321.031484 
L 118.046483 318.659775 
L 115.674775 321.031484 
L 113.303067 318.659775 
L 110.931358 321.031484 
L 113.303067 323.403192 
L 110.931358 325.7749 
z
" clip-path="url(#p28bbacf3dc)" style="fill: #1f77b4; stroke: #ffffff; stroke-width: 0.758947"/>
    <path d="M 84.238387 204.417055 
L 84.238387 211.125259 
L 90.946591 211.125259 
L 90.946591 204.417055 
z
" clip-path="url(#p28bbacf3dc)" style="fill: #1f77b4; stroke: #ffffff; stroke-width: 0.758947"/>
    <path d="M 60.397611 229.228797 
L 63.559889 229.228797 
L 63.559889 226.066519 
L 66.722166 226.066519 
L 66.722166 222.904241 
L 63.559889 222.904241 
L 63.559889 219.741964 
L 60.397611 219.741964 
L 60.397611 222.904241 
L 57.235334 222.904241 
L 57.235334 226.066519 
L 60.397611 226.066519 
z
" clip-path="url(#p28bbacf3dc)" style="fill: #1f77b4; stroke: #ffffff; stroke-width: 0.758947"/>
    <path d="M 85.45191 220.349753 
L 80.708493 225.09317 
L 85.45191 229.836586 
L 90.195326 225.09317 
z
" clip-path="url(#p28bbacf3dc)" style="fill: #1f77b4; stroke: #ffffff; stroke-width: 0.758947"/>
    <path d="M 508.37875 131.146696 
C 509.636719 131.146696 510.843334 130.6469 511.732852 129.757381 
C 512.62237 128.867863 513.122166 127.661248 513.122166 126.403279 
C 513.122166 125.145311 512.62237 123.938696 511.732852 123.049177 
C 510.843334 122.159659 509.636719 121.659863 508.37875 121.659863 
C 507.120781 121.659863 505.914166 122.159659 505.024648 123.049177 
C 504.13513 123.938696 503.635334 125.145311 503.635334 126.403279 
C 503.635334 127.661248 504.13513 128.867863 505.024648 129.757381 
C 505.914166 130.6469 507.120781 131.146696 508.37875 131.146696 
z
" clip-path="url(#p28bbacf3dc)" style="fill: #ff7f0e; stroke: #ffffff; stroke-width: 0.758947"/>
    <path d="M 409.72199 75.533917 
L 412.093698 73.162209 
L 414.465407 75.533917 
L 416.837115 73.162209 
L 414.465407 70.7905 
L 416.837115 68.418792 
L 414.465407 66.047084 
L 412.093698 68.418792 
L 409.72199 66.047084 
L 407.350282 68.418792 
L 409.72199 70.7905 
L 407.350282 73.162209 
z
" clip-path="url(#p28bbacf3dc)" style="fill: #ff7f0e; stroke: #ffffff; stroke-width: 0.758947"/>
    <path d="M 334.753461 36.363138 
L 334.753461 43.071342 
L 341.461665 43.071342 
L 341.461665 36.363138 
z
" clip-path="url(#p28bbacf3dc)" style="fill: #ff7f0e; stroke: #ffffff; stroke-width: 0.758947"/>
    <path d="M 325.322793 38.762626 
L 328.485071 38.762626 
L 328.485071 35.600348 
L 331.647348 35.600348 
L 331.647348 32.438071 
L 328.485071 32.438071 
L 328.485071 29.275793 
L 325.322793 29.275793 
L 325.322793 32.438071 
L 322.160515 32.438071 
L 322.160515 35.600348 
L 325.322793 35.600348 
z
" clip-path="url(#p28bbacf3dc)" style="fill: #ff7f0e; stroke: #ffffff; stroke-width: 0.758947"/>
    <path d="M 460.003425 54.726996 
L 455.260009 59.470413 
L 460.003425 64.213829 
L 464.746842 59.470413 
z
" clip-path="url(#p28bbacf3dc)" style="fill: #ff7f0e; stroke: #ffffff; stroke-width: 0.758947"/>
    <path d="M 258.124293 117.471422 
C 259.382262 117.471422 260.588877 116.971626 261.478395 116.082108 
C 262.367913 115.19259 262.86771 113.985975 262.86771 112.728006 
C 262.86771 111.470037 262.367913 110.263422 261.478395 109.373904 
C 260.588877 108.484386 259.382262 107.984589 258.124293 107.984589 
C 256.866325 107.984589 255.65971 108.484386 254.770191 109.373904 
C 253.880673 110.263422 253.380877 111.470037 253.380877 112.728006 
C 253.380877 113.985975 253.880673 115.19259 254.770191 116.082108 
C 255.65971 116.971626 256.866325 117.471422 258.124293 117.471422 
z
" clip-path="url(#p28bbacf3dc)" style="fill: #2ca02c; stroke: #ffffff; stroke-width: 0.758947"/>
    <path d="M 214.815113 69.683939 
L 217.186821 67.312231 
L 219.558529 69.683939 
L 221.930238 67.312231 
L 219.558529 64.940522 
L 221.930238 62.568814 
L 219.558529 60.197106 
L 217.186821 62.568814 
L 214.815113 60.197106 
L 212.443405 62.568814 
L 214.815113 64.940522 
L 212.443405 67.312231 
z
" clip-path="url(#p28bbacf3dc)" style="fill: #2ca02c; stroke: #ffffff; stroke-width: 0.758947"/>
    <path d="M 200.019983 29.29758 
L 200.019983 36.005784 
L 206.728187 36.005784 
L 206.728187 29.29758 
z
" clip-path="url(#p28bbacf3dc)" style="fill: #2ca02c; stroke: #ffffff; stroke-width: 0.758947"/>
    <path d="M 202.229261 29.037987 
L 205.391538 29.037987 
L 205.391538 25.875709 
L 208.553816 25.875709 
L 208.553816 22.713432 
L 205.391538 22.713432 
L 205.391538 19.551154 
L 202.229261 19.551154 
L 202.229261 22.713432 
L 199.066983 22.713432 
L 199.066983 25.875709 
L 202.229261 25.875709 
z
" clip-path="url(#p28bbacf3dc)" style="fill: #2ca02c; stroke: #ffffff; stroke-width: 0.758947"/>
    <path d="M 210.539606 48.269228 
L 205.79619 53.012645 
L 210.539606 57.756061 
L 215.283023 53.012645 
z
" clip-path="url(#p28bbacf3dc)" style="fill: #2ca02c; stroke: #ffffff; stroke-width: 0.758947"/>
    <path d="M 125.241493 130.235011 
C 126.499462 130.235011 127.706077 129.735215 128.595595 128.845696 
C 129.485113 127.956178 129.98491 126.749563 129.98491 125.491594 
C 129.98491 124.233626 129.485113 123.027011 128.595595 122.137493 
C 127.706077 121.247974 126.499462 120.748178 125.241493 120.748178 
C 123.983524 120.748178 122.776909 121.247974 121.887391 122.137493 
C 120.997873 123.027011 120.498077 124.233626 120.498077 125.491594 
C 120.498077 126.749563 120.997873 127.956178 121.887391 128.845696 
C 122.776909 129.735215 123.983524 130.235011 125.241493 130.235011 
z
" clip-path="url(#p28bbacf3dc)" style="fill: #d62728; stroke: #ffffff; stroke-width: 0.758947"/>
    <path d="M 94.670367 61.858643 
L 97.042076 59.486935 
L 99.413784 61.858643 
L 101.785492 59.486935 
L 99.413784 57.115227 
L 101.785492 54.743519 
L 99.413784 52.37181 
L 97.042076 54.743519 
L 94.670367 52.37181 
L 92.298659 54.743519 
L 94.670367 57.115227 
L 92.298659 59.486935 
z
" clip-path="url(#p28bbacf3dc)" style="fill: #d62728; stroke: #ffffff; stroke-width: 0.758947"/>
    <path d="M 92.639646 29.29758 
L 92.639646 36.005784 
L 99.34785 36.005784 
L 99.34785 29.29758 
z
" clip-path="url(#p28bbacf3dc)" style="fill: #d62728; stroke: #ffffff; stroke-width: 0.758947"/>
    <path d="M 87.897168 38.534705 
L 91.059445 38.534705 
L 91.059445 35.372427 
L 94.221723 35.372427 
L 94.221723 32.210149 
L 91.059445 32.210149 
L 91.059445 29.047872 
L 87.897168 29.047872 
L 87.897168 32.210149 
L 84.73489 32.210149 
L 84.73489 35.372427 
L 87.897168 35.372427 
z
" clip-path="url(#p28bbacf3dc)" style="fill: #d62728; stroke: #ffffff; stroke-width: 0.758947"/>
    <path d="M 99.712675 42.039381 
L 94.969258 46.782798 
L 99.712675 51.526214 
L 104.456091 46.782798 
z
" clip-path="url(#p28bbacf3dc)" style="fill: #d62728; stroke: #ffffff; stroke-width: 0.758947"/>
   </g>
   <g id="line2d_27"/>
   <g id="line2d_28"/>
   <g id="line2d_29"/>
   <g id="line2d_30"/>
   <g id="line2d_31"/>
   <g id="line2d_32"/>
   <g id="line2d_33"/>
   <g id="line2d_34"/>
   <g id="line2d_35"/>
   <g id="line2d_36"/>
   <g id="line2d_37"/>
   <g id="line2d_38">
    <path d="M 61.97875 224.48538 
L 87.592489 207.771157 
L 89.478307 33.791288 
L 95.993748 32.651682 
L 203.8104 24.29457 
" clip-path="url(#p28bbacf3dc)" style="fill: none; stroke-dasharray: 5.55,2.4; stroke-dashoffset: 0; stroke: #000000; stroke-width: 1.5"/>
   </g>
   <g id="patch_3">
    <path d="M 39.65875 352.39857 
L 39.65875 8.67057 
" style="fill: none; stroke: #cccccc; stroke-linejoin: miter; stroke-linecap: square"/>
   </g>
   <g id="patch_4">
    <path d="M 530.69875 352.39857 
L 530.69875 8.67057 
" style="fill: none; stroke: #cccccc; stroke-linejoin: miter; stroke-linecap: square"/>
   </g>
   <g id="patch_5">
    <path d="M 39.65875 352.39857 
L 530.69875 352.39857 
" style="fill: none; stroke: #cccccc; stroke-linejoin: miter; stroke-linecap: square"/>
   </g>
   <g id="patch_6">
    <path d="M 39.65875 8.67057 
L 530.69875 8.67057 
" style="fill: none; stroke: #cccccc; stroke-linejoin: miter; stroke-linecap: square"/>
   </g>
   <g id="text_16">
    <!-- sec-bm25+ -->
    <g style="fill: #262626" transform="translate(67.97875 220.48538) scale(0.08 -0.08)">
     <defs>
      <path id="DejaVuSans-2d" d="M 313 2009 
L 1997 2009 
L 1997 1497 
L 313 1497 
L 313 2009 
z
" transform="scale(0.015625)"/>
      <path id="DejaVuSans-62" d="M 3116 1747 
Q 3116 2381 2855 2742 
Q 2594 3103 2138 3103 
Q 1681 3103 1420 2742 
Q 1159 2381 1159 1747 
Q 1159 1113 1420 752 
Q 1681 391 2138 391 
Q 2594 391 2855 752 
Q 3116 1113 3116 1747 
z
M 1159 2969 
Q 1341 3281 1617 3432 
Q 1894 3584 2278 3584 
Q 2916 3584 3314 3078 
Q 3713 2572 3713 1747 
Q 3713 922 3314 415 
Q 2916 -91 2278 -91 
Q 1894 -91 1617 61 
Q 1341 213 1159 525 
L 1159 0 
L 581 0 
L 581 4863 
L 1159 4863 
L 1159 2969 
z
" transform="scale(0.015625)"/>
      <path id="DejaVuSans-2b" d="M 2944 4013 
L 2944 2272 
L 4684 2272 
L 4684 1741 
L 2944 1741 
L 2944 0 
L 2419 0 
L 2419 1741 
L 678 1741 
L 678 2272 
L 2419 2272 
L 2419 4013 
L 2944 4013 
z
" transform="scale(0.015625)"/>
     </defs>
     <use xlink:href="#DejaVuSans-73"/>
     <use xlink:href="#DejaVuSans-65" transform="translate(52.099609 0)"/>
     <use xlink:href="#DejaVuSans-63" transform="translate(113.623047 0)"/>
     <use xlink:href="#DejaVuSans-2d" transform="translate(168.603516 0)"/>
     <use xlink:href="#DejaVuSans-62" transform="translate(204.6875 0)"/>
     <use xlink:href="#DejaVuSans-6d" transform="translate(268.164062 0)"/>
     <use xlink:href="#DejaVuSans-32" transform="translate(365.576172 0)"/>
     <use xlink:href="#DejaVuSans-35" transform="translate(429.199219 0)"/>
     <use xlink:href="#DejaVuSans-2b" transform="translate(492.822266 0)"/>
    </g>
   </g>
   <g id="text_17">
    <!-- sec-bm25 -->
    <g style="fill: #262626" transform="translate(93.592489 203.771157) scale(0.08 -0.08)">
     <use xlink:href="#DejaVuSans-73"/>
     <use xlink:href="#DejaVuSans-65" transform="translate(52.099609 0)"/>
     <use xlink:href="#DejaVuSans-63" transform="translate(113.623047 0)"/>
     <use xlink:href="#DejaVuSans-2d" transform="translate(168.603516 0)"/>
     <use xlink:href="#DejaVuSans-62" transform="translate(204.6875 0)"/>
     <use xlink:href="#DejaVuSans-6d" transform="translate(268.164062 0)"/>
     <use xlink:href="#DejaVuSans-32" transform="translate(365.576172 0)"/>
     <use xlink:href="#DejaVuSans-35" transform="translate(429.199219 0)"/>
    </g>
   </g>
   <g id="text_18">
    <!-- c200-bm25+ -->
    <g style="fill: #262626" transform="translate(95.478307 29.791288) scale(0.08 -0.08)">
     <use xlink:href="#DejaVuSans-63"/>
     <use xlink:href="#DejaVuSans-32" transform="translate(54.980469 0)"/>
     <use xlink:href="#DejaVuSans-30" transform="translate(118.603516 0)"/>
     <use xlink:href="#DejaVuSans-30" transform="translate(182.226562 0)"/>
     <use xlink:href="#DejaVuSans-2d" transform="translate(245.849609 0)"/>
     <use xlink:href="#DejaVuSans-62" transform="translate(281.933594 0)"/>
     <use xlink:href="#DejaVuSans-6d" transform="translate(345.410156 0)"/>
     <use xlink:href="#DejaVuSans-32" transform="translate(442.822266 0)"/>
     <use xlink:href="#DejaVuSans-35" transform="translate(506.445312 0)"/>
     <use xlink:href="#DejaVuSans-2b" transform="translate(570.068359 0)"/>
    </g>
   </g>
   <g id="text_19">
    <!-- c200-bm25 -->
    <g style="fill: #262626" transform="translate(101.993748 28.651682) scale(0.08 -0.08)">
     <use xlink:href="#DejaVuSans-63"/>
     <use xlink:href="#DejaVuSans-32" transform="translate(54.980469 0)"/>
     <use xlink:href="#DejaVuSans-30" transform="translate(118.603516 0)"/>
     <use xlink:href="#DejaVuSans-30" transform="translate(182.226562 0)"/>
     <use xlink:href="#DejaVuSans-2d" transform="translate(245.849609 0)"/>
     <use xlink:href="#DejaVuSans-62" transform="translate(281.933594 0)"/>
     <use xlink:href="#DejaVuSans-6d" transform="translate(345.410156 0)"/>
     <use xlink:href="#DejaVuSans-32" transform="translate(442.822266 0)"/>
     <use xlink:href="#DejaVuSans-35" transform="translate(506.445312 0)"/>
    </g>
   </g>
   <g id="text_20">
    <!-- c120-bm25+ -->
    <g style="fill: #262626" transform="translate(209.8104 20.29457) scale(0.08 -0.08)">
     <use xlink:href="#DejaVuSans-63"/>
     <use xlink:href="#DejaVuSans-31" transform="translate(54.980469 0)"/>
     <use xlink:href="#DejaVuSans-32" transform="translate(118.603516 0)"/>
     <use xlink:href="#DejaVuSans-30" transform="translate(182.226562 0)"/>
     <use xlink:href="#DejaVuSans-2d" transform="translate(245.849609 0)"/>
     <use xlink:href="#DejaVuSans-62" transform="translate(281.933594 0)"/>
     <use xlink:href="#DejaVuSans-6d" transform="translate(345.410156 0)"/>
     <use xlink:href="#DejaVuSans-32" transform="translate(442.822266 0)"/>
     <use xlink:href="#DejaVuSans-35" transform="translate(506.445312 0)"/>
     <use xlink:href="#DejaVuSans-2b" transform="translate(570.068359 0)"/>
    </g>
   </g>
   <g id="legend_1">
    <g id="patch_7">
     <path d="M 542.31955 156.684008 
L 615.6583 156.684008 
Q 617.4583 156.684008 617.4583 154.884008 
L 617.4583 10.47057 
Q 617.4583 8.67057 615.6583 8.67057 
L 542.31955 8.67057 
Q 540.51955 8.67057 540.51955 10.47057 
L 540.51955 154.884008 
Q 540.51955 156.684008 542.31955 156.684008 
z
" style="fill: #ffffff; opacity: 0.8; stroke: #cccccc; stroke-linejoin: miter"/>
    </g>
    <g id="line2d_39"/>
    <g id="text_21">
     <!-- family -->
     <g style="fill: #262626" transform="translate(569.31955 19.109164) scale(0.09 -0.09)">
      <use xlink:href="#DejaVuSans-66"/>
      <use xlink:href="#DejaVuSans-61" transform="translate(35.205078 0)"/>
      <use xlink:href="#DejaVuSans-6d" transform="translate(96.484375 0)"/>
      <use xlink:href="#DejaVuSans-69" transform="translate(193.896484 0)"/>
      <use xlink:href="#DejaVuSans-6c" transform="translate(221.679688 0)"/>
      <use xlink:href="#DejaVuSans-79" transform="translate(249.462891 0)"/>
     </g>
    </g>
    <g id="line2d_40">
     <defs>
      <path id="m7435761dca" d="M 0 4.743416 
C 1.257969 4.743416 2.464584 4.24362 3.354102 3.354102 
C 4.24362 2.464584 4.743416 1.257969 4.743416 0 
C 4.743416 -1.257969 4.24362 -2.464584 3.354102 -3.354102 
C 2.464584 -4.24362 1.257969 -4.743416 0 -4.743416 
C -1.257969 -4.743416 -2.464584 -4.24362 -3.354102 -3.354102 
C -4.24362 -2.464584 -4.743416 -1.257969 -4.743416 0 
C -4.743416 1.257969 -4.24362 2.464584 -3.354102 3.354102 
C -2.464584 4.24362 -1.257969 4.743416 0 4.743416 
z
" style="stroke: #ffffff; stroke-width: 0.758947"/>
     </defs>
     <g>
      <use xlink:href="#m7435761dca" x="553.11955" y="29.169477" style="fill: #1f77b4; stroke: #ffffff; stroke-width: 0.758947"/>
     </g>
    </g>
    <g id="text_22">
     <!-- section -->
     <g style="fill: #262626" transform="translate(569.31955 32.319477) scale(0.09 -0.09)">
      <use xlink:href="#DejaVuSans-73"/>
      <use xlink:href="#DejaVuSans-65" transform="translate(52.099609 0)"/>
      <use xlink:href="#DejaVuSans-63" transform="translate(113.623047 0)"/>
      <use xlink:href="#DejaVuSans-74" transform="translate(168.603516 0)"/>
      <use xlink:href="#DejaVuSans-69" transform="translate(207.8125 0)"/>
      <use xlink:href="#DejaVuSans-6f" transform="translate(235.595703 0)"/>
      <use xlink:href="#DejaVuSans-6e" transform="translate(296.777344 0)"/>
     </g>
    </g>
    <g id="line2d_41">
     <defs>
      <path id="mc8816829cd" d="M 0 4.743416 
C 1.257969 4.743416 2.464584 4.24362 3.354102 3.354102 
C 4.24362 2.464584 4.743416 1.257969 4.743416 0 
C 4.743416 -1.257969 4.24362 -2.464584 3.354102 -3.354102 
C 2.464584 -4.24362 1.257969 -4.743416 0 -4.743416 
C -1.257969 -4.743416 -2.464584 -4.24362 -3.354102 -3.354102 
C -4.24362 -2.464584 -4.743416 -1.257969 -4.743416 0 
C -4.743416 1.257969 -4.24362 2.464584 -3.354102 3.354102 
C -2.464584 4.24362 -1.257969 4.743416 0 4.743416 
z
" style="stroke: #ffffff; stroke-width: 0.758947"/>
     </defs>
     <g>
      <use xlink:href="#mc8816829cd" x="553.11955" y="42.379789" style="fill: #ff7f0e; stroke: #ffffff; stroke-width: 0.758947"/>
     </g>
    </g>
    <g id="text_23">
     <!-- chunk80 -->
     <g style="fill: #262626" transform="translate(569.31955 45.529789) scale(0.09 -0.09)">
      <defs>
       <path id="DejaVuSans-68" d="M 3513 2113 
L 3513 0 
L 2938 0 
L 2938 2094 
Q 2938 2591 2744 2837 
Q 2550 3084 2163 3084 
Q 1697 3084 1428 2787 
Q 1159 2491 1159 1978 
L 1159 0 
L 581 0 
L 581 4863 
L 1159 4863 
L 1159 2956 
Q 1366 3272 1645 3428 
Q 1925 3584 2291 3584 
Q 2894 3584 3203 3211 
Q 3513 2838 3513 2113 
z
" transform="scale(0.015625)"/>
       <path id="DejaVuSans-6b" d="M 581 4863 
L 1159 4863 
L 1159 1991 
L 2875 3500 
L 3609 3500 
L 1753 1863 
L 3688 0 
L 2938 0 
L 1159 1709 
L 1159 0 
L 581 0 
L 581 4863 
z
" transform="scale(0.015625)"/>
      </defs>
      <use xlink:href="#DejaVuSans-63"/>
      <use xlink:href="#DejaVuSans-68" transform="translate(54.980469 0)"/>
      <use xlink:href="#DejaVuSans-75" transform="translate(118.359375 0)"/>
      <use xlink:href="#DejaVuSans-6e" transform="translate(181.738281 0)"/>
      <use xlink:href="#DejaVuSans-6b" transform="translate(245.117188 0)"/>
      <use xlink:href="#DejaVuSans-38" transform="translate(303.027344 0)"/>
      <use xlink:href="#DejaVuSans-30" transform="translate(366.650391 0)"/>
     </g>
    </g>
    <g id="line2d_42">
     <defs>
      <path id="m754c5639bd" d="M 0 4.743416 
C 1.257969 4.743416 2.464584 4.24362 3.354102 3.354102 
C 4.24362 2.464584 4.743416 1.257969 4.743416 0 
C 4.743416 -1.257969 4.24362 -2.464584 3.354102 -3.354102 
C 2.464584 -4.24362 1.257969 -4.743416 0 -4.743416 
C -1.257969 -4.743416 -2.464584 -4.24362 -3.354102 -3.354102 
C -4.24362 -2.464584 -4.743416 -1.257969 -4.743416 0 
C -4.743416 1.257969 -4.24362 2.464584 -3.354102 3.354102 
C -2.464584 4.24362 -1.257969 4.743416 0 4.743416 
z
" style="stroke: #ffffff; stroke-width: 0.758947"/>
     </defs>
     <g>
      <use xlink:href="#m754c5639bd" x="553.11955" y="55.590102" style="fill: #2ca02c; stroke: #ffffff; stroke-width: 0.758947"/>
     </g>
    </g>
    <g id="text_24">
     <!-- chunk120 -->
     <g style="fill: #262626" transform="translate(569.31955 58.740102) scale(0.09 -0.09)">
      <use xlink:href="#DejaVuSans-63"/>
      <use xlink:href="#DejaVuSans-68" transform="translate(54.980469 0)"/>
      <use xlink:href="#DejaVuSans-75" transform="translate(118.359375 0)"/>
      <use xlink:href="#DejaVuSans-6e" transform="translate(181.738281 0)"/>
      <use xlink:href="#DejaVuSans-6b" transform="translate(245.117188 0)"/>
      <use xlink:href="#DejaVuSans-31" transform="translate(303.027344 0)"/>
      <use xlink:href="#DejaVuSans-32" transform="translate(366.650391 0)"/>
      <use xlink:href="#DejaVuSans-30" transform="translate(430.273438 0)"/>
     </g>
    </g>
    <g id="line2d_43">
     <defs>
      <path id="me74f34a6f4" d="M 0 4.743416 
C 1.257969 4.743416 2.464584 4.24362 3.354102 3.354102 
C 4.24362 2.464584 4.743416 1.257969 4.743416 0 
C 4.743416 -1.257969 4.24362 -2.464584 3.354102 -3.354102 
C 2.464584 -4.24362 1.257969 -4.743416 0 -4.743416 
C -1.257969 -4.743416 -2.464584 -4.24362 -3.354102 -3.354102 
C -4.24362 -2.464584 -4.743416 -1.257969 -4.743416 0 
C -4.743416 1.257969 -4.24362 2.464584 -3.354102 3.354102 
C -2.464584 4.24362 -1.257969 4.743416 0 4.743416 
z
" style="stroke: #ffffff; stroke-width: 0.758947"/>
     </defs>
     <g>
      <use xlink:href="#me74f34a6f4" x="553.11955" y="68.800414" style="fill: #d62728; stroke: #ffffff; stroke-width: 0.758947"/>
     </g>
    </g>
    <g id="text_25">
     <!-- chunk200 -->
     <g style="fill: #262626" transform="translate(569.31955 71.950414) scale(0.09 -0.09)">
      <use xlink:href="#DejaVuSans-63"/>
      <use xlink:href="#DejaVuSans-68" transform="translate(54.980469 0)"/>
      <use xlink:href="#DejaVuSans-75" transform="translate(118.359375 0)"/>
      <use xlink:href="#DejaVuSans-6e" transform="translate(181.738281 0)"/>
      <use xlink:href="#DejaVuSans-6b" transform="translate(245.117188 0)"/>
      <use xlink:href="#DejaVuSans-32" transform="translate(303.027344 0)"/>
      <use xlink:href="#DejaVuSans-30" transform="translate(366.650391 0)"/>
      <use xlink:href="#DejaVuSans-30" transform="translate(430.273438 0)"/>
     </g>
    </g>
    <g id="line2d_44"/>
    <g id="text_26">
     <!-- model -->
     <g style="fill: #262626" transform="translate(569.31955 85.160727) scale(0.09 -0.09)">
      <use xlink:href="#DejaVuSans-6d"/>
      <use xlink:href="#DejaVuSans-6f" transform="translate(97.412109 0)"/>
      <use xlink:href="#DejaVuSans-64" transform="translate(158.59375 0)"/>
      <use xlink:href="#DejaVuSans-65" transform="translate(222.070312 0)"/>
      <use xlink:href="#DejaVuSans-6c" transform="translate(283.59375 0)"/>
     </g>
    </g>
    <g id="line2d_45">
     <defs>
      <path id="m6632952833" d="M 0 4.743416 
C 1.257969 4.743416 2.464584 4.24362 3.354102 3.354102 
C 4.24362 2.464584 4.743416 1.257969 4.743416 0 
C 4.743416 -1.257969 4.24362 -2.464584 3.354102 -3.354102 
C 2.464584 -4.24362 1.257969 -4.743416 0 -4.743416 
C -1.257969 -4.743416 -2.464584 -4.24362 -3.354102 -3.354102 
C -4.24362 -2.464584 -4.743416 -1.257969 -4.743416 0 
C -4.743416 1.257969 -4.24362 2.464584 -3.354102 3.354102 
C -2.464584 4.24362 -1.257969 4.743416 0 4.743416 
z
" style="stroke: #ffffff; stroke-width: 0.758947"/>
     </defs>
     <g>
      <use xlink:href="#m6632952833" x="553.11955" y="95.221039" style="fill: #333333; stroke: #ffffff; stroke-width: 0.758947"/>
     </g>
    </g>
    <g id="text_27">
     <!-- boolean -->
     <g style="fill: #262626" transform="translate(569.31955 98.371039) scale(0.09 -0.09)">
      <use xlink:href="#DejaVuSans-62"/>
      <use xlink:href="#DejaVuSans-6f" transform="translate(63.476562 0)"/>
      <use xlink:href="#DejaVuSans-6f" transform="translate(124.658203 0)"/>
      <use xlink:href="#DejaVuSans-6c" transform="translate(185.839844 0)"/>
      <use xlink:href="#DejaVuSans-65" transform="translate(213.623047 0)"/>
      <use xlink:href="#DejaVuSans-61" transform="translate(275.146484 0)"/>
      <use xlink:href="#DejaVuSans-6e" transform="translate(336.425781 0)"/>
     </g>
    </g>
    <g id="line2d_46">
     <defs>
      <path id="md3503cf624" d="M -2.371708 4.743416 
L 0 2.371708 
L 2.371708 4.743416 
L 4.743416 2.371708 
L 2.371708 0 
L 4.743416 -2.371708 
L 2.371708 -4.743416 
L 0 -2.371708 
L -2.371708 -4.743416 
L -4.743416 -2.371708 
L -2.371708 0 
L -4.743416 2.371708 
z
" style="stroke: #ffffff; stroke-width: 0.758947; stroke-linejoin: miter"/>
     </defs>
     <g>
      <use xlink:href="#md3503cf624" x="553.11955" y="108.431352" style="fill: #333333; stroke: #ffffff; stroke-width: 0.758947; stroke-linejoin: miter"/>
     </g>
    </g>
    <g id="text_28">
     <!-- tfidf -->
     <g style="fill: #262626" transform="translate(569.31955 111.581352) scale(0.09 -0.09)">
      <use xlink:href="#DejaVuSans-74"/>
      <use xlink:href="#DejaVuSans-66" transform="translate(39.208984 0)"/>
      <use xlink:href="#DejaVuSans-69" transform="translate(74.414062 0)"/>
      <use xlink:href="#DejaVuSans-64" transform="translate(102.197266 0)"/>
      <use xlink:href="#DejaVuSans-66" transform="translate(165.673828 0)"/>
     </g>
    </g>
    <g id="line2d_47">
     <defs>
      <path id="mbc200aec64" d="M -3.354102 -3.354102 
L -3.354102 3.354102 
L 3.354102 3.354102 
L 3.354102 -3.354102 
z
" style="stroke: #ffffff; stroke-width: 0.758947; stroke-linejoin: miter"/>
     </defs>
     <g>
      <use xlink:href="#mbc200aec64" x="553.11955" y="121.641664" style="fill: #333333; stroke: #ffffff; stroke-width: 0.758947; stroke-linejoin: miter"/>
     </g>
    </g>
    <g id="text_29">
     <!-- bm25 -->
     <g style="fill: #262626" transform="translate(569.31955 124.791664) scale(0.09 -0.09)">
      <use xlink:href="#DejaVuSans-62"/>
      <use xlink:href="#DejaVuSans-6d" transform="translate(63.476562 0)"/>
      <use xlink:href="#DejaVuSans-32" transform="translate(160.888672 0)"/>
      <use xlink:href="#DejaVuSans-35" transform="translate(224.511719 0)"/>
     </g>
    </g>
    <g id="line2d_48">
     <defs>
      <path id="mcd751d9cfb" d="M -1.581139 4.743416 
L 1.581139 4.743416 
L 1.581139 1.581139 
L 4.743416 1.581139 
L 4.743416 -1.581139 
L 1.581139 -1.581139 
L 1.581139 -4.743416 
L -1.581139 -4.743416 
L -1.581139 -1.581139 
L -4.743416 -1.581139 
L -4.743416 1.581139 
L -1.581139 1.581139 
z
" style="stroke: #ffffff; stroke-width: 0.758947; stroke-linejoin: miter"/>
     </defs>
     <g>
      <use xlink:href="#mcd751d9cfb" x="553.11955" y="134.851977" style="fill: #333333; stroke: #ffffff; stroke-width: 0.758947; stroke-linejoin: miter"/>
     </g>
    </g>
    <g id="text_30">
     <!-- bm25plus -->
     <g style="fill: #262626" transform="translate(569.31955 138.001977) scale(0.09 -0.09)">
      <use xlink:href="#DejaVuSans-62"/>
      <use xlink:href="#DejaVuSans-6d" transform="translate(63.476562 0)"/>
      <use xlink:href="#DejaVuSans-32" transform="translate(160.888672 0)"/>
      <use xlink:href="#DejaVuSans-35" transform="translate(224.511719 0)"/>
      <use xlink:href="#DejaVuSans-70" transform="translate(288.134766 0)"/>
      <use xlink:href="#DejaVuSans-6c" transform="translate(351.611328 0)"/>
      <use xlink:href="#DejaVuSans-75" transform="translate(379.394531 0)"/>
      <use xlink:href="#DejaVuSans-73" transform="translate(442.773438 0)"/>
     </g>
    </g>
    <g id="line2d_49">
     <defs>
      <path id="mc35d961595" d="M 0 -4.743416 
L -4.743416 -0 
L -0 4.743416 
L 4.743416 0 
z
" style="stroke: #ffffff; stroke-width: 0.758947; stroke-linejoin: miter"/>
     </defs>
     <g>
      <use xlink:href="#mc35d961595" x="553.11955" y="148.062289" style="fill: #333333; stroke: #ffffff; stroke-width: 0.758947; stroke-linejoin: miter"/>
     </g>
    </g>
    <g id="text_31">
     <!-- pivoted -->
     <g style="fill: #262626" transform="translate(569.31955 151.212289) scale(0.09 -0.09)">
      <defs>
       <path id="DejaVuSans-76" d="M 191 3500 
L 800 3500 
L 1894 563 
L 2988 3500 
L 3597 3500 
L 2284 0 
L 1503 0 
L 191 3500 
z
" transform="scale(0.015625)"/>
      </defs>
      <use xlink:href="#DejaVuSans-70"/>
      <use xlink:href="#DejaVuSans-69" transform="translate(63.476562 0)"/>
      <use xlink:href="#DejaVuSans-76" transform="translate(91.259766 0)"/>
      <use xlink:href="#DejaVuSans-6f" transform="translate(150.439453 0)"/>
      <use xlink:href="#DejaVuSans-74" transform="translate(211.621094 0)"/>
      <use xlink:href="#DejaVuSans-65" transform="translate(250.830078 0)"/>
      <use xlink:href="#DejaVuSans-64" transform="translate(312.353516 0)"/>
     </g>
    </g>
   </g>
  </g>
 </g>
 <defs>
  <clipPath id="p28bbacf3dc">
   <rect x="39.65875" y="8.67057" width="491.04" height="343.728"/>
  </clipPath>
 </defs>
</svg>
